<svg width="56" height="60" viewBox="0 0 56 60" fill="none" xmlns="http://www.w3.org/2000/svg">
<path d="M48.8229 4.48723L36.6418 0V5.31422L27.8086 12.5919L18.9754 5.31422V0L7.177 4.48723C2.88428 6.08531 0 10.2627 0 14.8823V25.8145L5.99698 27.8516V15.0323H9.47888V60H46.5211V15.0323H50.003V27.8516L56 25.8145V14.8823C56 10.2627 53.1157 6.08531 48.8229 4.48723ZM28.0765 44.2349C25.2993 44.2349 22.6838 43.2009 20.6755 41.3812V44.4987H17.1936V35.0607L26.6515 35.0639L26.6503 38.5795L22.8032 38.5782C24.205 39.9403 26.08 40.7193 28.0764 40.7193C31.479 40.7193 34.4945 38.4116 35.4094 35.1074L38.7628 36.0538C37.4292 40.8708 33.0348 44.2349 28.0765 44.2349ZM38.8271 31.0458L29.3692 31.0426L29.3704 27.527L33.2175 27.5283C31.8157 26.1662 29.9407 25.3873 27.9443 25.3873C24.5417 25.3873 21.5261 27.6949 20.6113 30.9991L17.2579 30.0527C18.5916 25.2359 22.986 21.8716 27.9442 21.8716C30.7213 21.8716 33.3368 22.9056 35.3452 24.7253V21.6079H38.8271V31.0458Z" fill="#9D977A"/>
</svg>
