<svg width="55" height="60" viewBox="0 0 55 60" fill="none" xmlns="http://www.w3.org/2000/svg">
<path d="M27.2877 51.1751V58.2389C27.2859 58.7054 27.0998 59.1523 26.7699 59.4822C26.44 59.8121 25.9931 59.9982 25.5266 60H1.76112C1.29404 60 0.846096 59.8145 0.515821 59.4842C0.185546 59.1539 0 58.706 0 58.2389V51.1751C0.00230601 48.5889 1.03069 46.1093 2.8594 44.2805C4.68811 42.4518 7.16772 41.4234 9.75391 41.4211H17.5435C20.1282 41.4255 22.6056 42.4548 24.4323 44.2834C26.259 46.1119 27.2859 48.5904 27.2877 51.1751Z" fill="#9D977A"/>
<path d="M6.01172 32.509C6.01172 30.9994 6.45925 29.5237 7.29774 28.2684C8.13623 27.0131 9.32804 26.0345 10.7225 25.4564C12.1171 24.8782 13.6517 24.7265 15.1324 25.0203C16.6131 25.3141 17.9735 26.0403 19.0416 27.107C20.1098 28.1738 20.8377 29.5333 21.1333 31.0136C21.429 32.494 21.2792 34.0288 20.7028 35.424C20.1265 36.8193 19.1494 38.0123 17.8952 38.8524C16.6409 39.6925 15.1657 40.1419 13.6562 40.1438C11.6304 40.1438 9.68747 39.3397 8.25414 37.9082C6.82081 36.4767 6.01428 34.5348 6.01172 32.509Z" fill="#9D977A"/>
<path d="M28.9132 34.0573C28.9123 34.6741 28.7285 35.2768 28.3853 35.7892C28.042 36.3017 27.5546 36.7009 26.9845 36.9365C26.4145 37.1721 25.7874 37.2335 25.1825 37.1129C24.5776 36.9923 24.022 36.6952 23.5859 36.2591C23.1498 35.8229 22.8526 35.2673 22.7321 34.6624C22.6115 34.0575 22.6729 33.4305 22.9085 32.8604C23.1441 32.2904 23.5433 31.803 24.0558 31.4597C24.5682 31.1164 25.1709 30.9327 25.7877 30.9318C26.1983 30.9313 26.605 31.0118 26.9844 31.1686C27.3638 31.3255 27.7086 31.5557 27.9989 31.8461C28.2892 32.1364 28.5194 32.4812 28.6763 32.8606C28.8332 33.24 28.9137 33.6467 28.9132 34.0573Z" fill="#9D977A"/>
<path d="M35.0081 25.4646C35.0081 26.2588 34.7725 27.0352 34.3313 27.6956C33.89 28.356 33.2629 28.8707 32.5291 29.1747C31.7953 29.4786 30.9879 29.5581 30.2089 29.4032C29.4299 29.2482 28.7144 28.8658 28.1528 28.3042C27.5911 27.7425 27.2087 27.027 27.0537 26.248C26.8988 25.4691 26.9783 24.6616 27.2822 23.9278C27.5862 23.1941 28.1009 22.5669 28.7613 22.1256C29.4217 21.6844 30.1981 21.4489 30.9923 21.4489C32.0571 21.4496 33.0781 21.873 33.831 22.6259C34.584 23.3788 35.0073 24.3998 35.0081 25.4646Z" fill="#9D977A"/>
<path d="M54.7503 14.3462C54.7503 17.462 51.7797 19.9973 48.1316 19.9973H26.6304C22.9824 19.9973 20.0117 17.462 20.0117 14.3462C20.0164 13.6317 20.1703 12.9261 20.4635 12.2745C20.7568 11.623 21.183 11.0399 21.7148 10.5627C22.832 9.5425 24.2456 8.90522 25.7499 8.74352C25.6917 8.3852 25.6625 8.02277 25.6628 7.65975C25.6628 3.4408 29.7076 0.00564273 34.691 0.00564273C36.3279 -0.0516953 37.9504 0.328801 39.3912 1.10787C40.8319 1.88693 42.0387 3.03634 42.887 4.43748C43.6887 4.15383 44.5331 4.00982 45.3835 4.01171C46.3918 3.99452 47.3921 4.19379 48.3169 4.59609C49.2417 4.99838 50.0694 5.59434 50.7443 6.34375C51.5678 7.28921 52.0124 8.50589 51.9925 9.75955C52.8072 10.2231 53.4889 10.8885 53.9719 11.6918C54.4549 12.4952 54.723 13.4093 54.7503 14.3462Z" fill="#9D977A"/>
</svg>
