<svg width="55" height="60" viewBox="0 0 55 60" fill="none" xmlns="http://www.w3.org/2000/svg">
<path d="M36.2046 3.7264C34.2326 1.44406 31.3404 0 28.1213 0H26.8848C23.6675 0 20.7735 1.44406 18.8015 3.7264C17.144 5.64634 16.1367 8.1594 16.1367 10.9068V14.5737H18.8015V10.9068C18.8015 6.38364 22.4293 2.70416 26.8848 2.70416H28.1213C32.5787 2.70416 36.2046 6.38366 36.2046 10.9068V14.5737H38.8694V10.9068C38.8694 8.1594 37.8639 5.64634 36.2046 3.7264Z" fill="#9D977A"/>
<path d="M54.8993 55.1902L47.0559 18.8067C46.5442 16.4324 44.2667 14.5737 41.8737 14.5737H38.866V22.7457C38.866 23.4939 38.2691 24.0978 37.5336 24.0978C36.7981 24.0978 36.2012 23.4939 36.2012 22.7457V14.5737H18.7981V22.7457C18.7981 23.4939 18.203 24.0978 17.4657 24.0978C16.7302 24.0978 16.1333 23.4939 16.1333 22.7457V14.5737H13.1274C10.7326 14.5737 8.45684 16.4324 7.94519 18.8067L0.101705 55.1902C-0.164781 56.4234 0.0981572 57.6528 0.822996 58.5651C1.54604 59.4773 2.67415 60.0001 3.91773 60.0001H51.0833C52.3269 60.0001 53.455 59.4773 54.178 58.5651C54.9011 57.6528 55.164 56.4234 54.8993 55.1902ZM38.8269 47.7069C38.6972 48.5524 38.1802 49.7638 36.4499 50.7446C34.6165 51.7848 32.6712 52.4608 30.5038 53.1765C30.1698 53.2865 29.8464 53.4 29.5302 53.5118C28.1854 53.9824 26.8086 54.4655 25.2487 54.4655C24.5772 54.4655 23.8701 54.3754 23.1169 54.1572C19.5585 53.1225 17.1246 51.2439 15.6785 48.41C15.3552 47.8295 13.321 43.6903 17.0695 37.5736C18.0004 35.7924 18.2403 33.8472 18.4197 31.8461C18.4286 31.7433 18.4374 31.637 18.4463 31.527C18.5814 29.9063 18.8052 27.1949 21.0117 26.353C22.0954 25.9402 23.1577 26.0664 24.0886 26.7208C25.9167 28.0044 26.7943 31.1899 27.1159 33.3857C27.775 33.218 28.5833 33.0324 29.4307 32.8863C32.5095 32.3545 34.421 32.6159 35.4213 33.7102C35.7712 34.0112 36.6329 34.882 36.6808 36.1511C36.6879 36.3638 36.6737 36.6126 36.6133 36.8831C36.7714 36.9768 36.9278 37.0868 37.077 37.2201C37.5744 37.6691 38.1483 38.5128 38.0825 40.0019C38.0879 40.3985 38.0203 40.9303 37.8196 41.4477C38.0345 41.6802 38.2318 41.9651 38.3774 42.3112C38.7381 43.155 38.7114 44.1068 38.2993 45.1506C38.6439 45.7581 38.9868 46.6631 38.8269 47.7069Z" fill="#9D977A"/>
<path d="M36.1948 47.3013C36.1166 47.7735 35.509 48.181 35.1537 48.3829C33.5282 49.3041 31.7143 49.9351 29.6819 50.6057C29.3319 50.7211 28.9944 50.8382 28.6622 50.9555C26.8519 51.5901 25.5443 52.0479 23.8531 51.5576C20.9893 50.7247 19.1399 49.3239 18.0366 47.1444C18.0153 47.1047 18.0118 47.094 17.9887 47.0596C17.8661 46.8361 16.3436 43.858 19.3566 38.967C19.3726 38.9418 19.3868 38.9165 19.401 38.8895C20.5842 36.6505 20.8773 34.3032 21.0763 32.0894C21.0852 31.9831 21.0941 31.8695 21.1047 31.7523C21.1811 30.8347 21.3214 29.1239 21.9539 28.8841C22.2435 28.7723 22.4016 28.8228 22.5757 28.9436C23.7607 29.7765 24.5939 33.4108 24.6028 35.0928V36.8542C24.6028 37.6005 25.1997 38.2062 25.9352 38.2062C26.6725 38.2062 27.2676 37.6005 27.2676 36.8542V36.1403C27.9036 35.9672 28.7972 35.7455 29.7423 35.576C32.7962 35.0297 33.4713 35.5508 33.4731 35.5508C33.5406 35.6355 33.6187 35.7094 33.7058 35.7743C33.7822 35.832 34.0149 36.0916 34.0203 36.2521C34.0238 36.3476 33.903 36.5513 33.6276 36.7947C33.1675 37.1967 33.0147 37.8691 33.2848 38.4208C33.553 38.9707 34.134 39.2717 34.7238 39.1509C34.8997 39.1257 35.2106 39.1509 35.3136 39.2464C35.3651 39.2933 35.445 39.4862 35.422 39.908C35.4202 39.9495 35.4184 39.9892 35.4202 40.0307C35.4238 40.1406 35.3794 40.42 35.3154 40.5264C34.7913 40.759 34.4449 41.2998 34.4964 41.8803C34.5497 42.4716 34.9494 42.9529 35.5215 43.0756C35.6352 43.1134 35.875 43.2342 35.9372 43.391C36.0082 43.5641 35.9567 43.9769 35.6014 44.6151C35.3171 45.1307 35.3829 45.7617 35.7808 46.1926C35.9105 46.3404 36.2658 46.8614 36.1948 47.3013Z" fill="#9D977A"/>
</svg>
