<svg width="47" height="54" viewBox="0 0 47 54" fill="none" xmlns="http://www.w3.org/2000/svg">
<path d="M45.0983 39.8401C45.0964 39.8401 45.0964 39.8401 45.0964 39.8401C42.5158 36.651 38.1849 30.384 38.1849 24.24C38.1849 18.1574 34.1965 12.6854 28.3932 10.6714C28.3207 8.08322 26.1552 6 23.5002 6C20.8452 6 18.6778 8.08322 18.6072 10.6714C12.8038 12.6855 8.81558 18.1575 8.81558 24.24C8.81558 30.3822 4.48658 36.651 1.90206 39.8401C1.04058 40.9114 0.776237 42.3188 1.19526 43.611C1.60444 44.8705 2.6187 45.8459 3.90704 46.2164C7.1518 47.1555 11.5013 47.7796 16.6935 48.0636C17.0908 51.4012 19.9898 54 23.4983 54C27.0062 54 29.9051 51.4017 30.3028 48.0648C36.6452 47.7179 40.6716 46.9164 43.0895 46.2163C44.3818 45.8457 45.3959 44.8703 45.8052 43.6109C46.2241 42.3188 45.9579 40.9095 45.0983 39.8401ZM28.3108 48.1575C27.8899 50.3866 25.8927 52.0801 23.4982 52.0801C21.1369 52.0801 19.1613 50.4327 18.7051 48.1575C20.0972 48.2132 21.6773 48.2401 23.4982 48.2401C23.4986 48.2401 23.4991 48.2401 23.4996 48.2401C23.5005 48.2401 23.5017 48.2401 23.5026 48.2401C25.3295 48.24 26.916 48.2132 28.3108 48.1575ZM43.9392 43.0273C43.7238 43.6897 43.2147 44.1793 42.5373 44.3751C40.1306 45.0714 36.044 45.8729 29.4749 46.1855C29.4237 46.1823 29.3715 46.1823 29.3172 46.1896C29.1535 46.1985 28.9859 46.2068 28.816 46.2149C27.1948 46.2822 25.4284 46.3201 23.5051 46.3202C23.5032 46.3202 23.5013 46.3202 23.4993 46.3202C21.5573 46.3202 19.7755 46.2815 18.1413 46.213C17.9849 46.2056 17.8304 46.1978 17.6792 46.1896C17.6405 46.184 17.602 46.1842 17.5637 46.1872C10.973 45.876 6.87388 45.0728 4.46106 44.3752C3.78553 44.1814 3.27453 43.6898 3.06115 43.0293C2.83992 42.3477 2.98084 41.5988 3.43706 41.0325C6.78316 36.8987 10.7735 30.628 10.7735 24.2401C10.7735 18.7412 14.5328 13.8203 19.9152 12.2727C20.3851 12.1364 20.6729 11.641 20.6024 11.1669C20.5848 11.0478 20.5632 10.9249 20.5632 10.8001C20.5632 9.21226 21.8809 7.9201 23.5001 7.9201C25.1193 7.9201 26.4351 9.21226 26.437 10.8001C26.437 10.9307 26.4155 11.0555 26.392 11.2129C26.3215 11.6872 26.6171 12.1383 27.0851 12.2727C32.4675 13.8203 36.2267 18.7432 36.2267 24.2401C36.2267 30.6299 40.217 36.8987 43.5632 41.0325C44.0194 41.6007 44.1604 42.3476 43.9392 43.0273Z" fill="#DCDCDC"/>
<path d="M43.9392 43.0273C43.7238 43.6897 43.2147 44.1793 42.5373 44.3751C40.1306 45.0714 36.044 45.8729 29.4749 46.1855C29.4237 46.1823 29.3715 46.1823 29.3172 46.1896C29.1535 46.1985 28.9859 46.2068 28.816 46.2149C27.1948 46.2822 25.4284 46.3201 23.5051 46.3202H23.4993C21.5573 46.3202 19.7755 46.2815 18.1413 46.213C17.9849 46.2056 17.8304 46.1978 17.6792 46.1896C17.6405 46.184 17.602 46.1842 17.5637 46.1872C10.973 45.876 6.87388 45.0728 4.46106 44.3752C3.78553 44.1814 3.27453 43.6898 3.06115 43.0293C2.83992 42.3477 2.98084 41.5988 3.43706 41.0325C6.78316 36.8987 10.7735 30.628 10.7735 24.2401C10.7735 18.7412 14.5328 13.8203 19.9152 12.2727C20.3851 12.1364 20.6729 11.641 20.6024 11.1669C20.5848 11.0478 20.5632 10.9249 20.5632 10.8001C20.5632 9.21226 21.8809 7.9201 23.5001 7.9201C25.1193 7.9201 26.4351 9.21226 26.437 10.8001C26.437 10.9307 26.4155 11.0555 26.392 11.2129C26.3215 11.6872 26.6171 12.1383 27.0851 12.2727C32.4675 13.8203 36.2267 18.7432 36.2267 24.2401C36.2267 30.6299 40.217 36.8987 43.5632 41.0325C44.0194 41.6007 44.1604 42.3476 43.9392 43.0273Z" fill="#DCDCDC"/>
<path d="M45.0983 34.8401C45.0964 34.8401 45.0964 34.8401 45.0964 34.8401C42.5158 31.651 38.1849 25.384 38.1849 19.24C38.1849 13.1574 34.1965 7.68542 28.3932 5.67138C28.3207 3.08322 26.1552 1 23.5002 1C20.8452 1 18.6778 3.08322 18.6072 5.67138C12.8038 7.68551 8.81558 13.1575 8.81558 19.24C8.81558 25.3822 4.48658 31.651 1.90206 34.8401C1.04058 35.9114 0.776237 37.3188 1.19526 38.611C1.60444 39.8705 2.61869 40.8459 3.90704 41.2164C7.1518 42.1555 11.5013 42.7796 16.6935 43.0636C17.0908 46.4012 19.9898 49 23.4983 49C27.0062 49 29.9051 46.4017 30.3028 43.0648C36.6452 42.7179 40.6716 41.9164 43.0895 41.2163C44.3818 40.8457 45.3959 39.8703 45.8052 38.6109C46.2241 37.3188 45.9579 35.9095 45.0983 34.8401ZM28.3108 43.1575C27.8899 45.3866 25.8927 47.0801 23.4982 47.0801C21.1369 47.0801 19.1613 45.4327 18.7051 43.1575C20.0972 43.2132 21.6773 43.2401 23.4982 43.2401C23.4986 43.2401 23.4991 43.2401 23.4996 43.2401C23.4998 43.2401 23.5001 43.2401 23.5001 43.2401C23.5009 43.2401 23.5017 43.2401 23.5026 43.2401C25.3295 43.24 26.916 43.2132 28.3108 43.1575ZM43.9392 38.0273C43.7238 38.6897 43.2147 39.1793 42.5373 39.3751C40.1306 40.0714 36.044 40.8729 29.4749 41.1855C29.4237 41.1823 29.3715 41.1823 29.3172 41.1896C29.1535 41.1985 28.9859 41.2068 28.816 41.2149C27.1948 41.2822 25.4284 41.3201 23.5051 41.3202C23.5032 41.3202 23.5013 41.3202 23.4993 41.3202C21.5573 41.3202 19.7755 41.2815 18.1413 41.213C17.9849 41.2056 17.8304 41.1978 17.6792 41.1896C17.6405 41.184 17.602 41.1842 17.5637 41.1872C10.973 40.876 6.87388 40.0728 4.46106 39.3752C3.78553 39.1814 3.27453 38.6898 3.06115 38.0293C2.83992 37.3477 2.98084 36.5988 3.43706 36.0325C6.78316 31.8987 10.7735 25.628 10.7735 19.2401C10.7735 13.7412 14.5328 8.82027 19.9152 7.27273C20.3851 7.13642 20.6729 6.64104 20.6024 6.16685C20.5848 6.04779 20.5632 5.92488 20.5632 5.8001C20.5632 4.21226 21.8809 2.9201 23.5001 2.9201C25.1193 2.9201 26.4351 4.21226 26.437 5.8001C26.437 5.9307 26.4155 6.05548 26.392 6.21289C26.3215 6.68717 26.6171 7.13829 27.0851 7.27273C32.4675 8.82027 36.2267 13.7432 36.2267 19.2401C36.2267 25.6299 40.217 31.8987 43.5632 36.0325C44.0194 36.6007 44.1604 37.3476 43.9392 38.0273Z" fill="black" stroke="black" stroke-width="0.2"/>
</svg>
