<svg width="86" height="92" viewBox="0 0 86 92" fill="none" xmlns="http://www.w3.org/2000/svg">
<path d="M28.6866 0C19.2932 -1.22126e-06 11.1998 6.67555 9.39839 15.8946L0.258452 62.6676C-1.4013 71.1618 5.14551 79.1152 13.8003 79.1152H25.4014C25.4014 79.1152 25.4592 76.3801 25.4014 76.1878H13.8003C6.93258 76.1878 1.82542 69.9717 3.14246 63.2314L12.2824 16.4584C13.8178 8.60047 20.68 2.93822 28.6866 2.93822H57.4833C65.4771 2.93822 72.3179 8.6054 73.8116 16.4584L82.7022 63.2097C83.9886 69.9731 78.8531 76.1878 71.9684 76.1878H60.7685V79.1152H71.9684C80.635 79.1152 87.2165 71.1816 85.597 62.6676L76.6956 15.9163C74.9418 6.69574 66.8692 1.11024e-06 57.4833 0H28.6866Z" fill="#9D977A"/>
<path d="M28.3934 11.7529C27.5819 11.7557 26.9265 12.416 26.9297 13.2275V24.9695C26.9297 33.875 34.1791 41.1352 43.0845 41.1352C51.9899 41.1352 59.2393 33.875 59.2393 24.9695V13.2275C59.2425 12.416 58.5871 11.7557 57.7756 11.7529C56.9599 11.7497 56.2979 12.4118 56.3011 13.2275V24.9695C56.3011 32.2874 50.4024 38.1969 43.0845 38.1969C35.7666 38.1969 29.8679 32.2874 29.8679 24.9695V13.2275C29.8711 12.4118 29.2091 11.7497 28.3934 11.7529Z" fill="#9D977A"/>
<path d="M43.0851 49.939C31.7462 49.939 22.5176 59.1676 22.5176 70.5065C22.5176 81.8455 31.7462 91.0632 43.0851 91.0632C54.4241 91.0632 63.6419 81.8455 63.6419 70.5065C63.6419 59.1676 54.4241 49.939 43.0851 49.939ZM43.0851 52.8772C52.8365 52.8772 60.7145 60.7551 60.7145 70.5065C60.7145 80.2579 52.8365 88.125 43.0851 88.125C33.3337 88.125 25.4558 80.2579 25.4558 70.5065C25.4558 60.7551 33.3337 52.8772 43.0851 52.8772Z" fill="#9D977A"/>
<path d="M42.0444 56.2491L31.7661 66.5274C30.8452 67.4537 31.5007 69.0312 32.8069 69.032H37.2088V83.7231C37.2057 84.5387 37.8677 85.2007 38.6834 85.1976H47.4872C48.3029 85.2007 48.9649 84.5387 48.9617 83.7231V69.032H53.3636C54.6698 69.0312 55.3254 67.4537 54.4045 66.5274L44.1261 56.2491C43.552 55.6725 42.6186 55.6725 42.0444 56.2491ZM43.0853 59.3608L49.8074 66.0937H47.4872C46.6758 66.0966 46.0204 66.7569 46.0235 67.5683V82.2594H40.1471V67.5683C40.1502 66.7569 39.4948 66.0966 38.6834 66.0937H36.3523L43.0853 59.3608Z" fill="#9D977A"/>
</svg>
