<svg width="200" height="200" viewBox="0 0 200 200" fill="none" xmlns="http://www.w3.org/2000/svg">
<circle cx="100" cy="100" r="100" fill="#9D977A"/>
<path d="M100.004 150.208C98.4795 150.208 97.0101 149.669 95.865 148.69C91.5403 145 87.3708 141.532 83.6921 138.473L83.6733 138.457C72.888 129.487 63.5745 121.742 57.0944 114.111C49.8506 105.581 46.4766 97.4936 46.4766 88.6582C46.4766 80.074 49.4928 72.1544 54.9692 66.3575C60.5109 60.4919 68.1149 57.2615 76.3829 57.2615C82.5625 57.2615 88.2218 59.168 93.2032 62.9277C95.7172 64.8255 97.9959 67.1481 100.004 69.8573C102.012 67.1481 104.29 64.8255 106.805 62.9277C111.786 59.168 117.445 57.2615 123.625 57.2615C131.892 57.2615 139.497 60.4919 145.039 66.3575C150.515 72.1544 153.531 80.074 153.531 88.6582C153.531 97.4936 150.157 105.581 142.913 114.111C136.433 121.742 127.121 129.487 116.337 138.455C112.652 141.519 108.476 144.992 104.141 148.692C102.997 149.669 101.527 150.208 100.004 150.208ZM76.3829 63.3813C69.8873 63.3813 63.92 65.9111 59.579 70.5053C55.1734 75.1689 52.7468 81.6155 52.7468 88.6582C52.7468 96.0892 55.5769 102.735 61.9222 110.207C68.054 117.427 77.174 125.012 87.7336 133.794C87.7357 133.796 87.7378 133.798 87.7399 133.799L87.7595 133.815C91.4521 136.886 95.638 140.368 99.9945 144.085C104.377 140.361 108.57 136.874 112.27 133.798C112.279 133.79 112.289 133.782 112.298 133.774C122.848 125 131.958 117.422 138.086 110.207C144.43 102.735 147.26 96.0892 147.26 88.6582C147.26 81.6155 144.834 75.1689 140.428 70.5053C136.088 65.9111 130.12 63.3813 123.625 63.3813C118.867 63.3813 114.498 64.8574 110.64 67.7682C107.202 70.3634 104.808 73.6441 103.404 75.9396C102.682 77.1201 101.411 77.8247 100.004 77.8247C98.5963 77.8247 97.3254 77.1201 96.6034 75.9396C95.2002 73.6441 92.8055 70.3634 89.3669 67.7682C85.5094 64.8574 81.1405 63.3813 76.3829 63.3813Z" fill="#F3E7D8"/>
<path d="M76.3829 63.3813C69.8873 63.3813 63.92 65.9111 59.579 70.5053C55.1734 75.1689 52.7468 81.6155 52.7468 88.6582C52.7468 96.0892 55.5769 102.735 61.9222 110.207C68.054 117.427 77.174 125.012 87.7336 133.794L87.7399 133.799L87.7595 133.815C91.4521 136.886 95.638 140.368 99.9945 144.085C104.377 140.361 108.57 136.874 112.27 133.798L112.298 133.774C122.848 125 131.958 117.422 138.086 110.207C144.43 102.735 147.26 96.0892 147.26 88.6582C147.26 81.6155 144.834 75.1689 140.428 70.5053C136.088 65.9111 130.12 63.3813 123.625 63.3813C118.867 63.3813 114.498 64.8574 110.64 67.7682C107.202 70.3634 104.808 73.6441 103.404 75.9396C102.682 77.1201 101.411 77.8247 100.004 77.8247C98.5963 77.8247 97.3254 77.1201 96.6034 75.9396C95.2002 73.6441 92.8055 70.3634 89.3669 67.7682C85.5094 64.8574 81.1405 63.3813 76.3829 63.3813Z" fill="#F3E7D8"/>
</svg>
