<svg width="371" height="249" viewBox="0 0 371 249" fill="none" xmlns="http://www.w3.org/2000/svg">
<path d="M322.459 18.1332C322.692 15.4692 321.479 12.7386 319.368 11.1235C317.241 9.50849 314.499 9.14218 312.007 10.0579C308.783 2.84848 300.075 -1.09757 292.314 0.267734C284.537 1.63303 278.571 6.67798 275.563 13.9873C268.932 10.5075 259.094 13.6876 255.555 19.8148H322.327L322.459 18.1332Z" fill="#E3DDC0"/>
<path d="M80.368 45.7224H1.39844C2.91069 41.5266 6.26757 38.0301 10.472 36.5316C14.6597 35.0165 19.5289 35.4993 23.3511 37.797C26.7578 30.1214 34.4686 23.7111 42.8109 22.9119C51.1533 22.0961 59.7947 26.0754 64.614 32.9519C66.5417 31.9695 68.7187 31.47 70.8957 31.6698C75.0668 32.0861 78.4736 34.5669 79.7698 38.6129C80.4677 40.7607 80.7004 43.175 80.368 45.7224Z" fill="#E3DDC0"/>
<path fill-rule="evenodd" clip-rule="evenodd" d="M348.497 50.068C348.497 52.4656 349.91 54.5135 351.937 55.4792C351.505 57.0943 350.874 58.6261 350.06 60.0414C347.949 59.2754 345.49 59.725 343.794 61.4233C342.099 63.1216 341.667 65.5858 342.432 67.7004C341.003 68.4995 339.474 69.1322 337.862 69.5818C336.915 67.5505 334.854 66.1352 332.461 66.1352C330.068 66.1352 328.024 67.5505 327.077 69.5818C325.465 69.1322 323.936 68.4995 322.507 67.7004C323.271 65.5858 322.822 63.1216 321.127 61.4233C319.432 59.725 316.989 59.2754 314.879 60.0414C314.065 58.6261 313.433 57.0943 312.984 55.4792C315.028 54.5135 316.441 52.4656 316.441 50.068C316.441 47.6704 315.028 45.6224 312.984 44.6567C313.433 43.0417 314.065 41.5099 314.879 40.0947C316.989 40.8606 319.432 40.411 321.127 38.7127C322.822 37.0144 323.271 34.5502 322.507 32.4357C323.936 31.6365 325.465 31.0037 327.077 30.5542C328.024 32.5855 330.068 34.0008 332.461 34.0008C334.854 34.0008 336.915 32.5855 337.862 30.5542C339.474 31.0037 341.003 31.6365 342.432 32.4357C341.667 34.5502 342.099 37.0144 343.794 38.7127C345.49 40.411 347.949 40.8606 350.06 40.0947C350.874 41.5099 351.505 43.0417 351.937 44.6567C349.91 45.6224 348.497 47.6704 348.497 50.068ZM339.54 50.068C339.54 46.1552 336.366 42.9751 332.461 42.9751C328.556 42.9751 325.398 46.1552 325.398 50.068C325.398 53.9807 328.556 57.1609 332.461 57.1609C336.366 57.1609 339.54 53.9807 339.54 50.068Z" fill="#E3DDC0"/>
<path d="M0 239.811C0.0166182 244.673 83.0078 248.553 185.376 248.453C287.727 248.353 370.718 244.307 370.718 239.445C370.702 234.567 287.711 230.687 185.343 230.787C82.9912 230.887 0 234.933 0 239.811Z" fill="#CFC9AC"/>
<path d="M73.2663 229.055C73.366 228.373 73.3494 227.624 72.9672 227.057C72.5684 226.491 71.7208 226.208 71.1724 226.608C70.9065 226.808 70.757 227.091 70.624 227.39C69.9261 228.922 69.6269 230.637 69.7599 232.302C69.0287 231.17 67.8156 230.354 66.4861 230.104C66.0873 230.038 65.622 230.021 65.3228 230.304C64.8908 230.687 65.0071 231.386 65.3062 231.886C66.0374 233.151 69.1949 235.033 70.6905 234.284C71.9203 233.684 73.0835 230.288 73.2663 229.055Z" fill="#CFC9AC"/>
<path d="M183.893 230.554C185.638 231.886 190.623 233.318 191.205 229.871C191.305 229.205 191.039 228.356 190.374 228.273C189.51 228.156 189.128 229.272 188.596 229.938C188.812 228.822 188.679 227.64 188.214 226.608C187.964 226.075 187.516 225.509 186.934 225.592C186.253 225.692 186.037 226.575 186.087 227.257C186.153 228.156 186.402 229.022 186.818 229.805C186.303 229.172 185.538 228.739 184.724 228.622C184.092 228.523 183.262 228.772 183.195 229.405C183.129 229.871 183.511 230.271 183.893 230.554Z" fill="#CFC9AC"/>
<path d="M337.18 239.295C336.997 238.613 336.199 238.33 335.585 238.296C334.887 238.263 334.222 238.463 333.64 238.779C334.106 238.063 334.488 237.231 334.604 236.398C334.687 235.749 334.571 234.9 333.873 234.65C333.042 234.334 332.327 235.183 331.945 235.815C331.43 236.648 331.164 237.58 331.098 238.546C330.682 237.597 330.067 236.198 328.937 237.048C327.458 238.163 328.721 240.144 329.635 241.093C329.768 241.227 329.951 241.027 329.835 240.894C329.353 240.394 328.854 239.828 328.638 239.129C328.472 238.529 328.555 237.664 329.12 237.264C330.25 236.481 330.732 238.479 331.081 239.162C331.148 239.295 331.33 239.229 331.33 239.095C331.33 238.196 331.513 237.297 331.912 236.465C332.062 236.132 332.261 235.799 332.494 235.516C332.859 235.066 333.723 234.567 334.155 235.199C334.936 236.348 333.673 238.33 332.992 239.229C332.892 239.362 333.092 239.478 333.208 239.395C333.856 238.879 334.637 238.563 335.468 238.579C336.349 238.596 337.363 239.229 336.681 240.178C336.017 241.127 334.521 241.426 333.457 241.693C333.291 241.743 333.358 242.009 333.524 241.959C334.604 241.693 337.629 240.994 337.18 239.295Z" fill="#F9F9F9"/>
<path fill-rule="evenodd" clip-rule="evenodd" d="M86.2372 159.675C86.2372 176.941 72.2613 190.927 55.0449 190.927C37.8118 190.927 23.8359 176.941 23.8359 159.675C23.8359 142.409 37.8118 128.423 55.0449 128.423C72.2613 128.423 86.2372 142.409 86.2372 159.675ZM74.4051 159.675C74.4051 148.952 65.7304 140.278 55.0449 140.278C44.3428 140.278 35.6681 148.952 35.6681 159.675C35.6681 170.398 44.3428 179.089 55.0449 179.089C65.7304 179.089 74.4051 170.398 74.4051 159.675Z" fill="#E3DDC0"/>
<path d="M66.9212 159.675C66.9212 166.252 61.6034 171.58 55.0392 171.58C48.4751 171.58 43.1406 166.252 43.1406 159.675C43.1406 153.098 48.4751 147.77 55.0392 147.77C61.6034 147.77 66.9212 153.098 66.9212 159.675Z" fill="#E3DDC0"/>
<path d="M60.0606 120.681C58.3821 120.464 56.6871 120.348 55.0419 120.348C53.3801 120.348 51.685 120.464 50.0066 120.681L49.5911 120.731L46.3672 135.166H63.7L60.476 120.731L60.0606 120.681Z" fill="#E3DDC0"/>
<path d="M49.5911 198.619L50.0066 198.669C51.685 198.886 53.3801 199.002 55.0419 199.002C56.6871 199.002 58.3821 198.886 60.0606 198.669L60.476 198.619L63.7 184.167H46.3672L49.5911 198.619Z" fill="#E3DDC0"/>
<path d="M31.0816 128.539C29.7189 129.588 28.4393 130.704 27.276 131.869C26.0961 133.051 24.9827 134.333 23.9524 135.665L23.7031 135.998L31.6134 148.486L43.861 136.215L31.3973 128.29L31.0816 128.539Z" fill="#E3DDC0"/>
<path d="M66.1953 183.135L78.6756 191.077L78.9913 190.811C80.354 189.778 81.6336 188.646 82.7969 187.481C83.9601 186.315 85.0902 185.033 86.1205 183.684L86.3698 183.351L78.4429 170.847L66.1953 183.135Z" fill="#E3DDC0"/>
<path d="M30.5802 151L16.1723 154.231L16.1058 154.63C15.8898 156.312 15.7734 158.01 15.7734 159.675C15.7734 161.34 15.8898 163.038 16.1058 164.72L16.1723 165.136L30.5802 168.35V151Z" fill="#E3DDC0"/>
<path d="M93.9598 154.63L93.8933 154.231L79.4688 151V168.35L93.8933 165.136L93.9598 164.72C94.1758 163.038 94.2922 161.34 94.2922 159.675C94.2922 158.01 94.1758 156.312 93.9598 154.63Z" fill="#E3DDC0"/>
<path d="M23.7031 183.351L23.9524 183.684C24.9827 185.033 26.1128 186.298 27.276 187.48C28.4393 188.646 29.7189 189.778 31.0816 190.81L31.3973 191.077L43.861 183.135L31.6134 170.864L23.7031 183.351Z" fill="#E3DDC0"/>
<path d="M86.3698 135.998L86.1205 135.665C85.0902 134.333 83.9768 133.051 82.7969 131.869C81.6336 130.704 80.354 129.588 78.9913 128.539L78.6756 128.29L66.1953 136.232L78.4429 148.503L86.3698 135.998Z" fill="#E3DDC0"/>
<path fill-rule="evenodd" clip-rule="evenodd" d="M367.066 167.966C367.066 169.232 366.982 170.514 366.8 171.796L366.766 172.112L360.252 173.561C359.654 175.975 358.707 178.239 357.46 180.304L361.033 185.965L360.85 186.198C360.069 187.23 359.222 188.196 358.324 189.095C357.444 189.978 356.463 190.827 355.433 191.626L355.184 191.826L349.55 188.229C347.489 189.478 345.229 190.444 342.82 191.027L341.357 197.553L341.058 197.603C339.778 197.77 338.482 197.853 337.236 197.853C335.973 197.853 334.693 197.77 333.397 197.603L333.098 197.553L331.636 191.027C329.226 190.444 326.966 189.478 324.922 188.229L319.272 191.826L319.022 191.626C317.992 190.827 317.012 189.978 316.131 189.095C315.25 188.196 314.386 187.23 313.605 186.198L313.422 185.965L316.995 180.304C315.749 178.239 314.801 175.975 314.22 173.561L307.689 172.112L307.656 171.796C307.489 170.514 307.406 169.215 307.406 167.966C307.406 166.701 307.489 165.402 307.656 164.12L307.689 163.821L314.22 162.355C314.801 159.941 315.749 157.677 316.995 155.629L313.422 149.968L313.605 149.718C314.386 148.702 315.233 147.72 316.131 146.821C317.028 145.938 317.992 145.089 319.022 144.29L319.272 144.107L324.922 147.687C326.966 146.438 329.226 145.489 331.636 144.906L333.098 138.363L333.397 138.329C334.693 138.163 335.973 138.08 337.236 138.08C338.482 138.08 339.778 138.163 341.058 138.329L341.357 138.363L342.82 144.906C345.229 145.489 347.489 146.438 349.55 147.703L355.184 144.107L355.433 144.29C356.463 145.089 357.444 145.938 358.324 146.821C359.222 147.72 360.069 148.702 360.85 149.718L361.033 149.968L357.46 155.629C358.707 157.677 359.654 159.941 360.252 162.355L366.766 163.821L366.8 164.12C366.982 165.402 367.066 166.701 367.066 167.966ZM351.943 167.966C351.943 159.808 345.362 153.214 337.236 153.214C329.093 153.214 322.512 159.808 322.512 167.966C322.512 176.108 329.093 182.702 337.236 182.702C345.362 182.702 351.943 176.108 351.943 167.966Z" fill="#E3DDC0"/>
<path d="M202.148 133.318L195.085 234.517L195.002 235.665H154.935C151.263 235.665 148.471 232.419 149.003 228.789L163.294 133.318H202.148Z" fill="#C5BFA2"/>
<path d="M202.858 133.318L195.812 234.517H157.008C153.352 234.517 150.544 231.253 151.092 227.623L165.201 133.318H202.858Z" fill="#BBB598"/>
<path d="M91.7155 231.403C88.6412 231.403 86.1484 233.9 86.1484 236.997V239.944H133.926V231.403H91.7155Z" fill="#C5BFA2"/>
<path d="M286.614 231.403H132.281V239.944H293.262V238.063C293.262 234.383 290.287 231.403 286.614 231.403Z" fill="#BBB598"/>
<path d="M293.696 198.103H74.2528C70.6965 198.103 67.7883 195.522 67.3563 192.009L65.5615 176.841L50.0734 46.8046C49.5582 42.4256 53.0979 38.4463 57.5349 38.4463H276.961C280.518 38.4463 283.442 41.027 283.858 44.5402L299.612 176.841L301.157 189.745C301.673 194.124 298.133 198.103 293.696 198.103Z" fill="#C5BFA2"/>
<path d="M296.371 194.973H76.9278C73.3715 194.973 70.4467 192.375 70.0312 188.862L68.2198 173.711L52.7483 43.6742C52.2165 39.2786 55.7562 35.3159 60.1933 35.3159H279.636C283.193 35.3159 286.117 37.8967 286.533 41.4098L302.287 173.711L303.816 186.598C304.348 190.993 300.808 194.973 296.371 194.973Z" fill="#BBB598"/>
<path d="M302.287 173.711H68.2198L52.7483 43.6742C52.2165 39.2786 55.7562 35.3159 60.1933 35.3159H279.636C283.193 35.3159 286.117 37.8967 286.533 41.4098L302.287 173.711Z" fill="#C5BFA2"/>
<path d="M293.479 166.102L279.237 42.9082H60.625L74.8668 166.102H293.479Z" fill="white"/>
<path d="M190.877 183.901C190.777 186.648 188.467 188.862 185.742 188.862C183 188.862 180.872 186.648 180.972 183.901C181.088 181.153 183.382 178.939 186.124 178.939C188.866 178.939 190.993 181.153 190.877 183.901Z" fill="white"/>
<path d="M73.6235 158.177L62.4062 61.0737H282.315L293.515 158.177H73.6235Z" fill="#CFC9AC"/>
<path d="M234.304 50.8506H77.1959C75.6504 50.8506 74.5536 52.0993 74.7198 53.6311C74.9026 55.1796 76.2985 56.4283 77.8274 56.4283H234.952C236.481 56.4283 237.595 55.1796 237.412 53.6311C237.229 52.0993 235.85 50.8506 234.304 50.8506Z" fill="#E3DDC0"/>
<path d="M246.503 50.8506C244.957 50.8506 243.861 52.0993 244.043 53.6311C244.21 55.1796 245.605 56.4283 247.151 56.4283C248.68 56.4283 249.793 55.1796 249.61 53.6311C249.428 52.0993 248.048 50.8506 246.503 50.8506Z" fill="#E3DDC0"/>
<path d="M255.823 50.8506C254.294 50.8506 253.181 52.0993 253.363 53.6311C253.546 55.1796 254.942 56.4283 256.471 56.4283C258.017 56.4283 259.113 55.1796 258.947 53.6311C258.764 52.0993 257.368 50.8506 255.823 50.8506Z" fill="#E3DDC0"/>
<path d="M265.167 50.8506C263.621 50.8506 262.525 52.0993 262.707 53.6311C262.874 55.1796 264.27 56.4283 265.815 56.4283C267.344 56.4283 268.457 55.1796 268.274 53.6311C268.092 52.0993 266.712 50.8506 265.167 50.8506Z" fill="#E3DDC0"/>
<path d="M202.247 148.619H162.679C160.984 148.619 159.455 147.237 159.256 145.539C159.056 143.841 160.27 142.476 161.965 142.476H201.549C203.244 142.476 204.773 143.841 204.956 145.539C205.155 147.237 203.942 148.619 202.247 148.619Z" fill="white"/>
<path d="M165.835 145.889L165.785 145.456H166.899L167.015 146.471C166.915 146.582 166.766 146.677 166.566 146.754C166.378 146.832 166.179 146.871 165.968 146.871C165.691 146.871 165.447 146.816 165.237 146.705C165.026 146.594 164.855 146.433 164.722 146.222C164.6 146.011 164.528 145.783 164.506 145.539C164.473 145.273 164.5 145.034 164.589 144.823C164.678 144.612 164.822 144.451 165.021 144.34C165.176 144.251 165.375 144.207 165.619 144.207C165.94 144.207 166.201 144.274 166.4 144.407C166.589 144.54 166.727 144.729 166.816 144.973L166.301 145.073C166.256 144.94 166.179 144.834 166.068 144.756C165.957 144.69 165.824 144.657 165.669 144.657C165.447 144.657 165.276 144.729 165.154 144.873C165.043 145.017 165.004 145.228 165.038 145.506C165.071 145.817 165.165 146.05 165.32 146.205C165.475 146.36 165.658 146.438 165.868 146.438C165.979 146.438 166.09 146.416 166.201 146.372C166.301 146.327 166.389 146.272 166.467 146.205L166.417 145.889H165.835Z" fill="#CFC9AC"/>
<path fill-rule="evenodd" clip-rule="evenodd" d="M167.464 145.556C167.431 145.3 167.442 145.078 167.497 144.89C167.542 144.768 167.608 144.651 167.697 144.54C167.785 144.44 167.891 144.362 168.012 144.307C168.168 144.24 168.35 144.207 168.561 144.207C168.937 144.207 169.253 144.324 169.508 144.557C169.763 144.801 169.912 145.128 169.957 145.539C170.001 145.961 169.929 146.288 169.741 146.521C169.541 146.754 169.248 146.871 168.86 146.871C168.483 146.871 168.168 146.754 167.913 146.521C167.658 146.288 167.508 145.966 167.464 145.556ZM167.996 145.539C168.029 145.828 168.123 146.05 168.278 146.205C168.433 146.36 168.611 146.438 168.81 146.438C169.021 146.438 169.181 146.36 169.292 146.205C169.414 146.061 169.458 145.839 169.425 145.539C169.392 145.239 169.298 145.017 169.142 144.873C168.998 144.729 168.821 144.657 168.611 144.657C168.4 144.657 168.234 144.729 168.112 144.873C168.001 145.017 167.963 145.239 167.996 145.539Z" fill="#CFC9AC"/>
<path d="M172.446 146.838L172.197 144.69H171.433L171.383 144.257H173.427L173.477 144.69H172.712L172.962 146.838H172.446Z" fill="#CFC9AC"/>
<path fill-rule="evenodd" clip-rule="evenodd" d="M173.931 145.556C173.897 145.3 173.914 145.078 173.981 144.89C174.014 144.768 174.08 144.651 174.18 144.54C174.269 144.44 174.368 144.362 174.479 144.307C174.634 144.24 174.817 144.207 175.027 144.207C175.404 144.207 175.72 144.324 175.975 144.557C176.23 144.801 176.379 145.128 176.423 145.539C176.479 145.961 176.407 146.288 176.207 146.521C176.008 146.754 175.72 146.871 175.343 146.871C174.955 146.871 174.634 146.754 174.379 146.521C174.125 146.288 173.975 145.966 173.931 145.556ZM174.462 145.539C174.496 145.828 174.59 146.05 174.745 146.205C174.9 146.36 175.077 146.438 175.277 146.438C175.487 146.438 175.648 146.36 175.759 146.205C175.881 146.061 175.925 145.839 175.892 145.539C175.858 145.239 175.77 145.017 175.626 144.873C175.471 144.729 175.288 144.657 175.077 144.657C174.867 144.657 174.701 144.729 174.579 144.873C174.468 145.017 174.429 145.239 174.462 145.539Z" fill="#CFC9AC"/>
<path d="M178.33 146.838L178.031 144.257H178.563L178.679 145.272H179.693L179.577 144.257H180.092L180.391 146.838H179.876L179.743 145.705H178.729L178.862 146.838H178.33Z" fill="#CFC9AC"/>
<path fill-rule="evenodd" clip-rule="evenodd" d="M180.86 145.556C180.827 145.3 180.844 145.078 180.91 144.89C180.955 144.768 181.021 144.651 181.11 144.54C181.198 144.44 181.298 144.362 181.409 144.307C181.564 144.24 181.747 144.207 181.957 144.207C182.334 144.207 182.65 144.324 182.904 144.557C183.159 144.801 183.309 145.128 183.353 145.539C183.408 145.961 183.336 146.288 183.137 146.521C182.938 146.754 182.65 146.871 182.273 146.871C181.885 146.871 181.564 146.754 181.309 146.521C181.054 146.288 180.905 145.966 180.86 145.556ZM181.392 145.539C181.425 145.828 181.52 146.05 181.675 146.205C181.83 146.36 182.007 146.438 182.206 146.438C182.417 146.438 182.583 146.36 182.705 146.205C182.816 146.061 182.855 145.839 182.821 145.539C182.788 145.239 182.699 145.017 182.555 144.873C182.4 144.729 182.218 144.657 182.007 144.657C181.797 144.657 181.636 144.729 181.525 144.873C181.403 145.017 181.359 145.239 181.392 145.539Z" fill="#CFC9AC"/>
<path d="M184.08 146.838L183.781 144.257H184.562L185.227 146.005L185.493 144.257H186.274L186.573 146.838H186.091L185.859 144.806L185.576 146.838H185.077L184.33 144.806L184.562 146.838H184.08Z" fill="#CFC9AC"/>
<path d="M187.276 146.838L186.977 144.257H188.871L188.938 144.69H187.542L187.608 145.256H188.904L188.954 145.689H187.658L187.741 146.405H189.17L189.22 146.838H187.276Z" fill="#CFC9AC"/>
<path fill-rule="evenodd" clip-rule="evenodd" d="M189.846 146.838L189.547 144.257H190.378C190.688 144.257 190.893 144.268 190.993 144.29C191.148 144.335 191.281 144.418 191.392 144.54C191.513 144.673 191.585 144.84 191.608 145.039C191.63 145.206 191.613 145.339 191.558 145.439C191.513 145.55 191.452 145.639 191.375 145.705C191.297 145.761 191.214 145.8 191.126 145.822C191.004 145.844 190.826 145.855 190.594 145.855H190.245L190.361 146.838H189.846ZM190.112 144.69L190.195 145.422H190.494C190.694 145.422 190.826 145.411 190.893 145.389C190.959 145.356 191.009 145.311 191.043 145.256C191.076 145.2 191.087 145.134 191.076 145.056C191.065 144.956 191.026 144.878 190.959 144.823C190.904 144.756 190.832 144.717 190.743 144.706C190.677 144.695 190.55 144.69 190.361 144.69H190.112Z" fill="#CFC9AC"/>
<path fill-rule="evenodd" clip-rule="evenodd" d="M194.466 146.838H193.901L193.619 146.238H192.589L192.439 146.838H191.891L192.589 144.257H193.137L194.466 146.838ZM193.403 145.822L192.938 144.856L192.705 145.822H193.403Z" fill="#CFC9AC"/>
<path d="M196.016 145.889L195.966 145.456H197.096L197.212 146.471C197.113 146.582 196.963 146.677 196.764 146.754C196.564 146.832 196.359 146.871 196.149 146.871C195.883 146.871 195.645 146.816 195.434 146.705C195.224 146.594 195.052 146.433 194.919 146.222C194.797 146.011 194.72 145.783 194.686 145.539C194.664 145.273 194.697 145.034 194.786 144.823C194.875 144.612 195.019 144.451 195.218 144.34C195.373 144.251 195.573 144.207 195.816 144.207C196.138 144.207 196.398 144.274 196.597 144.407C196.786 144.54 196.919 144.729 196.996 144.973L196.498 145.073C196.442 144.94 196.365 144.834 196.265 144.756C196.154 144.69 196.021 144.657 195.866 144.657C195.645 144.657 195.473 144.729 195.351 144.873C195.24 145.017 195.196 145.228 195.218 145.506C195.262 145.817 195.362 146.05 195.517 146.205C195.661 146.36 195.844 146.438 196.066 146.438C196.176 146.438 196.287 146.416 196.398 146.372C196.498 146.327 196.581 146.272 196.647 146.205L196.614 145.889H196.016Z" fill="#CFC9AC"/>
<path d="M197.909 146.838L197.609 144.257H199.52L199.57 144.69H198.174L198.241 145.256H199.537L199.587 145.689H198.291L198.374 146.405H199.82L199.869 146.838H197.909Z" fill="#CFC9AC"/>
<path d="M218.714 132.769H142.536L142.453 132.02H218.631L218.714 132.769Z" fill="white"/>
<path d="M216.557 137.214H145.747L145.664 136.481H216.458L216.557 137.214Z" fill="white"/>
<path fill-rule="evenodd" clip-rule="evenodd" d="M144.952 124.577L144.453 120.231H145.866C146.397 120.231 146.746 120.253 146.913 120.298C147.167 120.353 147.389 120.492 147.577 120.714C147.777 120.936 147.893 121.219 147.926 121.563C147.96 121.829 147.937 122.051 147.86 122.229C147.782 122.418 147.677 122.562 147.544 122.662C147.411 122.762 147.267 122.834 147.112 122.878C146.913 122.912 146.613 122.928 146.215 122.928H145.633L145.832 124.577H144.952ZM145.4 120.964L145.55 122.196H146.032C146.375 122.196 146.602 122.173 146.713 122.129C146.824 122.085 146.907 122.013 146.962 121.913C147.018 121.813 147.04 121.702 147.029 121.58C147.007 121.413 146.946 121.28 146.846 121.18C146.735 121.08 146.608 121.019 146.464 120.997C146.353 120.975 146.143 120.964 145.832 120.964H145.4Z" fill="white"/>
<path fill-rule="evenodd" clip-rule="evenodd" d="M153.674 124.577H152.727L152.228 123.578H150.484L150.251 124.577H149.32L150.5 120.231H151.431L153.674 124.577ZM151.863 122.845L151.082 121.23L150.683 122.845H151.863Z" fill="white"/>
<path d="M157.18 122.978L157.097 122.246H158.991L159.19 123.977C159.024 124.155 158.775 124.31 158.443 124.444C158.11 124.577 157.767 124.643 157.412 124.643C156.958 124.643 156.548 124.549 156.183 124.36C155.828 124.172 155.545 123.9 155.335 123.545C155.124 123.189 154.997 122.801 154.953 122.379C154.897 121.935 154.942 121.535 155.086 121.18C155.241 120.825 155.49 120.553 155.834 120.364C156.088 120.22 156.426 120.148 156.847 120.148C157.379 120.148 157.811 120.264 158.143 120.498C158.476 120.72 158.708 121.03 158.841 121.43L157.977 121.597C157.9 121.386 157.767 121.214 157.578 121.08C157.401 120.958 157.185 120.897 156.93 120.897C156.543 120.897 156.255 121.019 156.066 121.264C155.867 121.508 155.795 121.868 155.85 122.346C155.906 122.867 156.061 123.256 156.315 123.511C156.581 123.767 156.897 123.894 157.263 123.894C157.451 123.894 157.634 123.861 157.811 123.794C157.988 123.717 158.132 123.628 158.243 123.528L158.193 122.978H157.18Z" fill="white"/>
<path d="M161.289 124.577L160.773 120.231H163.997L164.08 120.964H161.737L161.854 121.929H164.031L164.114 122.662H161.937L162.07 123.844H164.496L164.579 124.577H161.289Z" fill="white"/>
<path d="M169.444 124.577L168.945 120.231H169.793L171.903 123.128L171.571 120.231H172.385L172.884 124.577H172.003L169.926 121.729L170.258 124.577H169.444Z" fill="white"/>
<path fill-rule="evenodd" clip-rule="evenodd" d="M174.6 122.429C174.556 121.985 174.578 121.613 174.667 121.313C174.744 121.091 174.861 120.892 175.016 120.714C175.16 120.536 175.331 120.403 175.531 120.314C175.786 120.203 176.09 120.148 176.445 120.148C177.076 120.148 177.608 120.348 178.04 120.747C178.472 121.147 178.727 121.702 178.805 122.412C178.893 123.112 178.766 123.661 178.422 124.061C178.09 124.449 177.608 124.643 176.977 124.643C176.323 124.643 175.786 124.449 175.365 124.061C174.933 123.661 174.678 123.117 174.6 122.429ZM175.498 122.396C175.553 122.884 175.714 123.256 175.98 123.511C176.234 123.767 176.534 123.894 176.877 123.894C177.232 123.894 177.503 123.767 177.691 123.511C177.891 123.267 177.963 122.89 177.907 122.379C177.841 121.88 177.686 121.508 177.442 121.264C177.198 121.019 176.894 120.897 176.528 120.897C176.173 120.897 175.897 121.025 175.697 121.28C175.509 121.524 175.442 121.896 175.498 122.396Z" fill="white"/>
<path d="M181.927 124.577L181.511 120.964H180.232L180.148 120.231H183.588L183.672 120.964H182.392L182.807 124.577H181.927Z" fill="white"/>
<path d="M188.772 124.577L188.273 120.231H191.248L191.331 120.964H189.237L189.354 121.996H191.165L191.248 122.728H189.437L189.653 124.577H188.772Z" fill="white"/>
<path fill-rule="evenodd" clip-rule="evenodd" d="M193.264 122.429C193.209 121.985 193.231 121.613 193.331 121.313C193.408 121.091 193.519 120.892 193.663 120.714C193.818 120.536 193.99 120.403 194.178 120.314C194.444 120.203 194.749 120.148 195.092 120.148C195.735 120.148 196.272 120.348 196.704 120.747C197.136 121.147 197.391 121.702 197.468 122.412C197.546 123.112 197.419 123.661 197.086 124.061C196.754 124.449 196.266 124.643 195.624 124.643C194.981 124.643 194.449 124.449 194.028 124.061C193.596 123.661 193.342 123.117 193.264 122.429ZM194.161 122.396C194.217 122.884 194.372 123.256 194.627 123.511C194.882 123.767 195.186 123.894 195.541 123.894C195.895 123.894 196.167 123.767 196.355 123.511C196.554 123.267 196.621 122.89 196.554 122.379C196.499 121.88 196.349 121.508 196.106 121.264C195.862 121.019 195.557 120.897 195.192 120.897C194.837 120.897 194.56 121.025 194.361 121.28C194.173 121.524 194.106 121.896 194.161 122.396Z" fill="white"/>
<path d="M199.109 120.231H199.974L200.256 122.579C200.3 122.956 200.339 123.2 200.372 123.311C200.428 123.489 200.533 123.628 200.688 123.727C200.843 123.838 201.043 123.894 201.286 123.894C201.53 123.894 201.713 123.844 201.835 123.744C201.946 123.644 202.006 123.517 202.018 123.361C202.029 123.217 202.012 122.973 201.968 122.629L201.685 120.231H202.566L202.832 122.512C202.887 123.034 202.904 123.4 202.882 123.611C202.86 123.833 202.793 124.016 202.682 124.16C202.571 124.305 202.416 124.421 202.217 124.51C202.018 124.599 201.746 124.643 201.403 124.643C200.982 124.643 200.66 124.599 200.439 124.51C200.217 124.41 200.034 124.282 199.89 124.127C199.746 123.972 199.647 123.811 199.591 123.644C199.503 123.4 199.431 123.034 199.375 122.545L199.109 120.231Z" fill="white"/>
<path d="M205.209 124.577L204.711 120.231H205.558L207.669 123.128L207.337 120.231H208.151L208.666 124.577H207.785L205.708 121.729L206.024 124.577H205.209Z" fill="white"/>
<path fill-rule="evenodd" clip-rule="evenodd" d="M210.297 120.231H211.892C212.258 120.231 212.54 120.259 212.74 120.314C212.995 120.381 213.227 120.514 213.438 120.714C213.637 120.903 213.798 121.136 213.92 121.413C214.053 121.691 214.141 122.035 214.186 122.445C214.23 122.801 214.224 123.106 214.169 123.361C214.091 123.683 213.964 123.938 213.787 124.127C213.654 124.282 213.46 124.399 213.205 124.477C213.028 124.543 212.773 124.577 212.441 124.577H210.795L210.297 120.231ZM211.261 120.964L211.593 123.844H212.241C212.485 123.844 212.662 123.827 212.773 123.794C212.906 123.761 213.017 123.705 213.105 123.628C213.183 123.539 213.244 123.394 213.288 123.195C213.321 123.006 213.321 122.745 213.288 122.412C213.244 122.068 213.183 121.807 213.105 121.63C213.028 121.452 212.928 121.313 212.806 121.213C212.684 121.113 212.54 121.041 212.374 120.997C212.252 120.975 212.014 120.964 211.66 120.964H211.261Z" fill="white"/>
<path d="M144.353 98.6192H135.927L136.825 106.262H146.297L146.197 110.324H132.67L129.562 84.0005H143.04L143.522 88.1297H134.698L135.445 94.5399H143.871L144.353 98.6192Z" fill="white"/>
<path fill-rule="evenodd" clip-rule="evenodd" d="M152.996 99.102L154.309 110.324H149.639L146.531 84.0005H154.574C159.36 84.0005 162.352 86.498 162.9 91.1933C163.349 95.0061 161.521 96.6378 160.208 97.1873C162.352 98.1363 163.515 99.8679 163.98 103.764L164.097 104.813C164.446 107.793 164.728 108.909 165.094 110.324H160.557C160.025 109.109 159.709 107.027 159.444 104.763L159.327 103.814C158.928 100.284 157.981 99.102 155.007 99.102H152.996ZM152.547 95.2892H154.757C157.599 95.2892 158.563 94.0571 158.247 91.3931C157.981 89.1287 156.751 87.8133 154.342 87.8133H151.666L152.547 95.2892Z" fill="white"/>
<path fill-rule="evenodd" clip-rule="evenodd" d="M172.088 99.102L173.401 110.324H168.732L165.641 84.0005H173.684C178.453 84.0005 181.461 86.498 182.01 91.1933C182.458 95.0061 180.614 96.6378 179.301 97.1873C181.461 98.1363 182.624 99.8679 183.073 103.764L183.206 104.813C183.555 107.793 183.821 108.909 184.203 110.324H179.65C179.135 109.109 178.819 107.027 178.553 104.763L178.437 103.814C178.021 100.284 177.074 99.102 174.099 99.102H172.088ZM171.64 95.2892H173.85C176.692 95.2892 177.656 94.0571 177.34 91.3931C177.074 89.1287 175.844 87.8133 173.435 87.8133H170.776L171.64 95.2892Z" fill="white"/>
<path fill-rule="evenodd" clip-rule="evenodd" d="M202.648 96.9544C203.778 106.578 201.667 110.774 195.618 110.774C189.951 110.774 186.711 106.645 185.564 96.9045C184.451 87.414 187.209 83.5845 192.627 83.5845C198.36 83.5845 201.584 87.8302 202.648 96.9544ZM190.383 96.8712C191.115 103.115 192.511 106.828 195.253 106.828C198.161 106.828 198.593 103.381 197.828 96.8712C197.097 90.7606 195.851 87.5638 192.993 87.5638C190.184 87.5638 189.702 90.9937 190.383 96.8712Z" fill="white"/>
<path fill-rule="evenodd" clip-rule="evenodd" d="M211.277 99.102L212.59 110.324H207.92L204.812 84.0005H212.856C217.642 84.0005 220.633 86.498 221.181 91.1933C221.63 95.0061 219.802 96.6378 218.489 97.1873C220.633 98.1363 221.796 99.8679 222.262 103.764L222.378 104.813C222.727 107.793 223.009 108.909 223.375 110.324H218.838C218.306 109.109 217.991 107.027 217.725 104.763L217.609 103.814C217.193 100.284 216.262 99.102 213.288 99.102H211.277ZM210.828 95.2892H213.039C215.88 95.2892 216.844 94.0571 216.528 91.3931C216.262 89.1287 215.033 87.8133 212.623 87.8133H209.948L210.828 95.2892Z" fill="white"/>
<path d="M88.6068 26.6079L53.0938 93.8573H124.12L88.6068 26.6079Z" fill="#F4F5F9"/>
<path fill-rule="evenodd" clip-rule="evenodd" d="M124.123 95.2059H53.097C52.615 95.2059 52.183 94.9561 51.9503 94.5399C51.701 94.1403 51.6844 93.6408 51.9005 93.2245L87.4135 25.9918C87.6462 25.5423 88.1115 25.2759 88.61 25.2759C89.1086 25.2759 89.5573 25.5423 89.7899 25.9918L125.303 93.2245C125.519 93.6408 125.519 94.1403 125.27 94.5399C125.02 94.9561 124.588 95.2059 124.123 95.2059ZM55.3238 92.5086H121.896L88.61 29.4883L55.3238 92.5086Z" fill="#C5BFA2"/>
<path d="M86.9 77.3736L85.3047 61.1898V53.6973H91.9021V61.1898L90.34 77.3736H86.9ZM85.5872 85.5987V79.4881H91.6861V85.5987H85.5872Z" fill="#C5BFA2"/>
<path d="M256.974 109.292L253.883 104.613C256.708 102.732 267.942 94.7563 269.653 93.6074L274.523 100.967C267.51 105.296 264.286 105.379 257.024 109.258L256.974 109.292Z" fill="#FFC4B6"/>
<path d="M269.572 93.6741C267.561 95.0227 266.996 97.7533 268.342 99.7846C269.688 101.799 272.414 102.365 274.441 101.017C276.468 99.6681 277.017 96.9375 275.671 94.9062C274.325 92.8749 271.599 92.3254 269.572 93.6741Z" fill="#FFC4B6"/>
<path d="M253.799 104.663C252.503 105.512 252.154 107.26 253.001 108.559C253.865 109.841 255.61 110.191 256.89 109.342C258.186 108.476 258.535 106.744 257.671 105.445C256.823 104.163 255.078 103.797 253.799 104.663Z" fill="#FFC4B6"/>
<path d="M253.484 101.75C254.398 101.6 255.096 102.149 255.096 102.149V102.432L254.282 102.898L253.484 101.75Z" fill="#FFC4B6"/>
<path d="M235.553 239.578V232.302V221.013L245.324 215.352L255.096 221.013V231.936V239.578C261.46 236.098 265.781 229.338 265.781 221.563C265.781 210.241 256.625 201.066 245.324 201.066C234.024 201.066 224.867 210.241 224.867 221.563C224.867 229.338 229.188 236.115 235.553 239.578Z" fill="#A7A184"/>
<path d="M255.096 83.8506V91.1266V102.432L245.324 108.076L235.553 102.432V91.5096V91.4929V83.8506C229.188 87.3304 224.867 94.0903 224.867 101.866C224.867 113.188 234.024 122.362 245.324 122.362C256.625 122.362 265.781 113.188 265.781 101.866C265.781 94.0903 261.46 87.3304 255.096 83.8506Z" fill="#A7A184"/>
<path d="M234.82 115.686H255.826V207.76H234.82V115.686Z" fill="#A7A184"/>
<path d="M249.597 103.697C249.364 103.764 249.115 103.83 248.932 103.98C248.567 104.247 248.45 104.73 248.367 105.179C247.852 105.196 247.42 105.579 247.204 106.045C247.005 106.511 246.988 107.044 247.021 107.56C247.055 108.176 247.138 109.142 247.586 109.625C247.935 110.008 248.5 109.741 248.567 109.258C248.6 109.042 248.567 108.809 248.55 108.592C248.517 108.282 248.511 107.965 248.534 107.643C248.733 108.021 248.932 108.398 249.132 108.775C249.215 108.959 249.315 109.142 249.464 109.292C249.747 109.608 250.229 109.725 250.511 109.375C250.877 108.925 250.694 108.359 250.644 107.826C250.622 107.582 250.605 107.332 250.594 107.077C250.594 106.961 250.644 106.544 250.578 106.461C250.81 106.744 250.96 107.077 251.143 107.41C251.325 107.727 251.541 108.043 251.874 108.193C252.206 108.359 252.655 108.326 252.888 108.026C253.104 107.743 253.054 107.344 252.971 106.994C252.838 106.261 252.699 105.529 252.555 104.796C252.821 105.24 253.092 105.69 253.369 106.145C253.519 106.395 253.685 106.711 254.001 106.761C254.267 106.794 254.632 106.661 254.782 106.428C254.948 106.178 254.948 105.862 254.932 105.562C254.898 104.68 254.965 103.731 254.832 102.848C254.666 101.649 253.619 100.617 252.455 101.633C252.323 101.766 252.206 101.899 252.057 102.016C251.625 102.332 250.976 102.332 250.611 102.732C250.445 102.931 250.378 103.181 250.195 103.381C250.029 103.547 249.813 103.614 249.597 103.697Z" fill="#FFC4B6"/>
<path d="M276.664 221.363L276.465 227.623C276.432 228.556 275.85 229.388 275.003 229.754L270.499 231.802C268.073 232.818 268.654 236.331 271.28 236.331H283.411V232.019L283.677 221.363H276.664Z" fill="#FFC4B6"/>
<path d="M257.62 237.547L274.537 229.871L277.495 232.202H283.461V238.995C283.461 239.511 283.062 239.944 282.58 239.944H258.069C257.437 239.944 256.922 239.378 256.922 238.696C256.922 238.196 257.188 237.747 257.62 237.547Z" fill="#9D977A"/>
<path d="M274.405 229.155H285.04C286.22 215.485 288.746 191.293 292.435 167.85C293.815 159.159 294.612 150.501 296.374 141.893C297.886 134.483 299.664 127.623 300.13 119.964C300.346 116.052 297.919 110.857 293.299 109.575C288.646 108.293 283.279 109.292 280.37 113.138C277.379 117.051 276.366 122.262 275.95 127.174C274.67 142.742 273.79 153.165 273.324 168.782C272.793 187.047 273.624 210.857 274.405 229.155Z" fill="#A7A184"/>
<path d="M316.801 237.264H305.102L307.229 229.471V221.679H314.524V229.471L316.801 237.264Z" fill="#FFC4B6"/>
<path d="M316.747 234.733L314.953 230.537L310.914 231.353L306.826 230.537L305.065 234.733L303.769 237.497C303.735 237.586 303.719 237.674 303.719 237.763V238.712C303.719 239.395 304.267 239.944 304.932 239.944H310.914H317.412C318.094 239.944 318.642 239.395 318.642 238.712V237.813C318.642 237.697 318.609 237.58 318.542 237.464L316.747 234.733Z" fill="#9D977A"/>
<path d="M316.414 175.575C316.292 170.458 316.165 165.347 316.032 160.241C315.833 152.027 315.628 143.807 315.417 135.582C315.317 131.236 315.882 126.358 312.841 122.861C310.265 119.914 306.227 118.549 302.388 118.849C295.808 119.381 291.803 124.476 292.318 130.287L298.899 177.007C298.899 177.04 298.915 177.074 298.915 177.107L306.144 229.155H316.215L316.431 175.692C316.431 175.675 316.414 175.658 316.414 175.642C316.414 175.608 316.414 175.592 316.414 175.575Z" fill="#A7A184"/>
<path d="M294.467 143.391C294.522 143.391 294.577 143.391 294.633 143.391C294.849 143.374 294.998 143.191 294.998 142.991C294.982 142.775 294.832 142.608 294.6 142.625C292.971 142.692 291.592 141.46 291.459 139.811L290.827 130.937C290.811 130.737 290.628 130.57 290.428 130.587C290.212 130.604 290.063 130.787 290.079 130.987L290.711 139.861C290.86 141.876 292.489 143.391 294.467 143.391Z" fill="#9D977A"/>
<path d="M295.027 149.868C295.038 149.868 295.049 149.868 295.06 149.868C295.26 149.868 295.426 149.685 295.409 149.468L294.163 130.054C294.146 129.854 293.947 129.705 293.764 129.705C293.548 129.721 293.398 129.904 293.398 130.104L294.661 149.518C294.678 149.718 294.844 149.868 295.027 149.868Z" fill="#9D977A"/>
<path d="M304.983 74.9428C306.246 78.1063 309.753 79.7047 312.927 78.6225C313.049 78.5892 313.165 78.5503 313.276 78.5059C316.533 77.1906 318.128 73.461 316.816 70.1976C315.503 66.9175 311.797 65.3191 308.523 66.6345C305.266 67.9498 303.671 71.6628 304.983 74.9428Z" fill="#FFC4B6"/>
<path d="M316.349 97.2371C317.296 99.5848 319.939 100.717 322.282 99.7846C324.608 98.8355 325.738 96.1882 324.808 93.8572C323.877 91.5095 321.218 90.3773 318.892 91.3097C316.549 92.2421 315.419 94.9061 316.349 97.2371Z" fill="#FFC4B6"/>
<path d="M316.817 70.1978C320.306 77.5404 322.45 84.4835 324.777 93.7242L324.81 93.8574L316.351 97.2374C312.878 88.3629 309.721 83.3679 305.051 75.0596L304.984 74.943L316.817 70.1978Z" fill="#FFC4B6"/>
<path d="M273.981 71.4962C272.818 74.693 274.363 78.2228 277.454 79.5548C277.565 79.5992 277.676 79.6436 277.786 79.688C281.11 80.8868 284.766 79.1719 285.963 75.8585C287.176 72.5452 285.464 68.8822 282.157 67.6834C278.85 66.4679 275.194 68.1829 273.981 71.4962Z" fill="#FFC4B6"/>
<path d="M267.613 95.7055C266.748 98.0865 267.978 100.701 270.338 101.55C272.698 102.415 275.307 101.2 276.171 98.8357C277.035 96.4714 275.805 93.8407 273.446 92.9916C271.086 92.1258 268.477 93.3412 267.613 95.7055Z" fill="#FFC4B6"/>
<path d="M285.956 75.8584C283.663 83.6672 280.638 90.2606 276.218 98.7188L276.168 98.8354L267.609 95.7052C270.916 86.7641 271.913 80.9366 273.941 71.6126L273.974 71.4961L285.956 75.8584Z" fill="#FFC4B6"/>
<path d="M314.225 112.522C314.374 113.871 314.723 118.716 315.056 123.328H275.92C276.734 111.373 277.781 100.317 278.196 95.0893C276.402 94.2568 268.242 91.0767 268.242 91.0767C269.638 85.1659 271.034 78.1396 273.111 72.6951C275.405 66.7011 280.855 64.0204 286.888 62.5552C288.118 62.2555 290.394 61.9725 291.192 61.9059C291.192 61.9059 298.471 61.3398 300.382 61.5895C316.352 63.804 318.645 72.0457 320.689 77.1906C322.185 80.9535 323.614 85.5156 324.478 88.8456L313.311 93.3244C313.061 97.1872 313.71 107.177 314.225 112.522Z" fill="#9D977A"/>
<path d="M301.675 61.7893L295.975 60.5239L290.258 62.0058L290.225 62.7384C290.125 64.4367 291.239 65.9685 292.552 66.6178C293.449 67.0674 294.446 67.1839 295.426 67.1173C298.202 66.9175 301.16 65.2359 301.675 61.7893Z" fill="#FFC4B6"/>
<path d="M290.389 47.4204C292.25 47.6035 293.862 48.5026 294.693 50.2342C295.258 51.383 295.541 52.6485 295.873 53.8806C296.172 54.9129 296.621 56.0284 297.602 56.428C298.366 56.7444 299.28 56.5113 299.961 56.0284C301.324 55.0627 301.756 53.2645 302.521 51.8326C303.451 50.0844 303.767 49.1519 303.767 47.1539C303.767 47.1539 303.933 42.2755 301.64 39.6615C299.346 37.0308 292.599 36.731 290.206 38.2795C287.83 39.8446 286.733 43.5576 287.149 45.7221C287.581 47.9032 290.389 47.4204 290.389 47.4204Z" fill="#9D977A"/>
<path d="M295.376 66.7341C293.049 66.7674 291.138 64.9026 291.121 62.5716L291.055 61.2229V61.1397V61.0897L290.939 52.2486L290.922 50.0008L299.347 49.8843V50.6668L299.414 54.8793V54.9459V55.0624L299.53 62.4717C299.563 64.786 297.702 66.7008 295.376 66.7341Z" fill="#FFC4B6"/>
<path d="M299.414 54.9459C299.381 55.0014 299.353 55.0569 299.331 55.1124C298.948 56.0281 298.467 56.8939 297.902 57.6432C296.256 59.8077 293.697 60.9565 291.055 61.2229V61.1397V61.0897L290.939 52.2486L290.922 50.0008L299.347 49.8843V50.6668L299.414 54.8793V54.9459Z" fill="#EF9B8F"/>
<path d="M302.903 49.918C301.956 49.3852 300.926 49.8347 300.41 50.6839C300.277 50.8837 300.161 51.1334 299.879 51.1168C299.513 51.0835 299.546 50.7005 299.596 50.4508C299.796 49.4518 299.729 48.3862 299.081 47.5537C298.416 46.7212 297.303 46.3216 296.239 46.2883C294.361 46.2383 292.616 47.1374 290.755 47.0708C289.426 47.0209 288.03 46.6213 287.149 45.7222C287.116 46.3549 287.083 46.9376 287.033 47.7368C286.9 50.1511 286.767 52.6153 287.398 54.9463C287.797 56.3449 288.429 57.6602 289.409 58.5593C289.542 58.6814 289.681 58.798 289.825 58.909C290.473 59.3752 291.254 59.7082 292.201 59.8081C293.73 59.9579 295.392 59.5916 296.804 58.8091C297.419 58.4594 297.984 58.0432 298.466 57.5603C298.665 57.3716 298.848 57.1718 299.014 56.9609C299.829 55.9453 300.344 54.7465 300.543 53.4644C301.075 53.531 301.624 53.4478 302.122 53.248C302.421 53.1314 302.687 52.9483 302.92 52.7152C303.601 52.0159 303.917 50.5174 302.903 49.918Z" fill="#FFC4B6"/>
<path d="M300.81 51.6493C300.993 50.8667 301.807 50.5004 302.522 50.8667C302.622 50.9167 302.671 50.7502 302.588 50.7002C301.791 50.3006 300.86 50.7169 300.661 51.5993C300.627 51.6992 300.794 51.7658 300.81 51.6493Z" fill="#EF9B8F"/>
<path d="M294.899 70.3805C298.854 70.3805 302.693 67.6832 304.405 63.5373C304.488 63.3375 304.405 63.1211 304.206 63.0378C304.006 62.9546 303.79 63.0545 303.707 63.2543C301.912 67.6166 297.608 70.2306 293.503 69.498C289.631 68.7987 288.468 65.219 288.651 63.1377C288.668 62.9379 288.501 62.7548 288.302 62.7382C288.119 62.7049 287.903 62.8714 287.886 63.0712C287.687 65.4355 289 69.4481 293.37 70.2473C293.88 70.3361 294.39 70.3805 294.899 70.3805Z" fill="#BBB598"/>
<path d="M304.385 45.9884H285.523C285.523 42.8582 287.052 40.061 289.412 38.3627C290.974 37.1972 292.869 36.5312 294.963 36.5312C296.292 36.5312 297.538 36.7977 298.685 37.2972C302.042 38.7457 304.385 42.0923 304.385 45.9884Z" fill="#A7A184"/>
<path d="M287.648 46.3047L287.598 46.0383C287.249 43.5075 287.947 39.9777 289.16 38.1795C290.871 36.8808 292.849 36.2314 294.96 36.2314C296.289 36.2314 297.569 36.4978 298.749 37.0806C299.131 37.2637 299.33 37.5967 299.33 37.5967L298.699 37.63C294.926 37.8132 291.785 41.1931 290.888 46.0383L290.855 46.3047H287.648Z" fill="#C5BFA2"/>
<path d="M304.782 47.287H283.727V46.5377C283.727 46.238 283.976 45.9883 284.275 45.9883H304.782V47.287Z" fill="#A7A184"/>
<path d="M314.243 121.23L277.234 121.646V125.143L314.243 124.726V121.23Z" fill="#B1AB8E"/>
<path fill-rule="evenodd" clip-rule="evenodd" d="M296.16 122.395V124.21C296.16 125.176 295.429 125.958 294.515 125.975L290.71 126.042C290.278 126.042 289.862 125.875 289.563 125.559C289.214 125.242 289.031 124.76 289.031 124.277V122.445C289.031 121.496 289.762 120.697 290.676 120.68L294.465 120.614C294.914 120.614 295.33 120.797 295.629 121.097C295.978 121.43 296.16 121.896 296.16 122.395ZM289.995 124.277C289.995 124.51 290.078 124.726 290.244 124.876C290.361 124.993 290.51 125.059 290.726 125.076L294.499 125.009C294.881 124.993 295.197 124.643 295.197 124.21V122.395C295.197 122.162 295.114 121.946 294.947 121.796C294.831 121.663 294.665 121.596 294.482 121.596L290.693 121.663C290.311 121.663 289.995 122.012 289.995 122.445V124.277Z" fill="#7F795C"/>
<path d="M313.825 66.5511C309.271 75.592 312.711 86.8308 312.711 86.8308L313.309 93.3243L315.187 126.175H301.859C298.602 126.175 295.96 123.511 295.977 120.247L296.159 86.3812C296.159 86.3812 302.724 70.3806 307.526 63.2544L308.54 63.4708C310.584 63.9204 312.429 64.986 313.825 66.5511Z" fill="#D9D3B6"/>
<path d="M284.094 63.2544C287.534 68.1495 290.924 85.7985 290.924 85.7985L290.193 120.397C290.126 123.611 287.501 126.175 284.31 126.175H275.07L278.61 87.2637C279.906 82.4019 280.621 71.7792 278.926 65.8851C280.388 64.5864 282.166 63.6706 284.077 63.2544H284.094Z" fill="#D9D3B6"/>
<path d="M314.628 116.351L296.016 115.985V112.955L314.462 113.321L314.628 116.351Z" fill="#BBB598"/>
<path d="M314.887 121.113L296.009 120.73C295.992 120.564 295.992 120.414 295.992 120.247L296.009 117.7L314.704 118.083L314.887 121.113Z" fill="#BBB598"/>
<path d="M290.342 112.971L290.276 116.001L275.984 116.285L276.25 113.254L290.342 112.971Z" fill="#BBB598"/>
<path d="M290.263 117.716L290.196 120.397C290.196 120.514 290.18 120.63 290.163 120.763L275.539 121.046L275.822 117.999L290.263 117.716Z" fill="#BBB598"/>
<path d="M322.762 120.664L317.062 120.497C317.178 117.051 316.879 110.474 316.53 105.446C316.248 101.166 316.131 97.4036 316.198 95.3057L325.139 95.5721C324.607 103.947 323.809 112.289 322.762 120.614V120.664Z" fill="#FFC4B6"/>
<path d="M316.197 95.4058C316.131 97.87 318.058 99.9346 320.534 100.018C322.994 100.084 325.054 98.153 325.121 95.6722C325.204 93.208 323.26 91.1434 320.8 91.0768C318.324 90.9935 316.28 92.9416 316.197 95.4058Z" fill="#FFC4B6"/>
<path d="M317.064 120.597C317.014 122.163 318.26 123.478 319.823 123.528C321.401 123.578 322.714 122.329 322.747 120.764C322.797 119.182 321.567 117.883 319.989 117.833C318.427 117.784 317.114 119.016 317.064 120.597Z" fill="#FFC4B6"/>
<path d="M334.479 150.767H310.516V135.016H334.479V150.767Z" fill="#BBB598"/>
<path d="M311.565 150.767H304.336V135.016H311.565V150.767Z" fill="#C5BFA2"/>
<path d="M312.695 135.216H314.224V132.785C314.224 131.286 315.454 130.054 316.966 130.054L321.852 130.071C323.364 130.071 324.577 131.303 324.577 132.801V135.232H326.09V132.818C326.09 130.47 324.195 128.556 321.852 128.556L316.966 128.539C314.623 128.539 312.712 130.437 312.712 132.785L312.695 135.216Z" fill="#9D977A"/>
<path d="M317.096 121.246C317.362 122.795 318.841 123.844 320.386 123.577C321.948 123.311 322.995 121.829 322.73 120.264C322.464 118.716 320.985 117.667 319.423 117.933C317.877 118.199 316.83 119.681 317.096 121.246Z" fill="#FFC4B6"/>
<path d="M322.761 120.63C322.744 121.196 322.694 121.796 322.777 122.345C322.927 123.527 323.558 124.61 323.94 125.742C324.24 126.641 324.406 127.573 324.489 128.522C324.555 129.355 324.788 130.354 324.539 131.186C324.422 131.553 324.157 131.886 323.791 132.002C323.658 132.036 323.525 132.036 323.392 132.086C323.076 132.219 322.91 132.552 322.628 132.735C322.212 132.985 321.664 132.785 321.198 132.918C320.683 133.068 320.285 133.617 319.736 133.584C319.088 133.567 318.673 132.735 318.024 132.752C317.659 132.752 317.326 133.035 316.944 133.018C316.761 133.018 316.595 132.935 316.446 132.851C315.764 132.419 315.282 131.336 315.382 130.554C315.382 130.52 315.631 130.387 315.681 130.371C315.798 130.287 315.847 130.187 315.864 130.071C315.897 129.838 315.764 129.521 315.631 129.338C315.432 129.072 315.066 128.955 314.8 129.122C314.269 129.438 313.953 129.805 313.521 130.271C313.039 129.372 312.756 127.956 313.222 126.791C313.454 126.208 313.737 125.625 314.152 125.143C314.634 124.593 315.216 124.144 315.698 123.577C316.396 122.762 316.994 121.779 317.044 120.697L322.761 120.63Z" fill="#FFC4B6"/>
<path d="M335.21 137.913H303.586V134.933H335.21V137.913Z" fill="#D9D3B6"/>
<path d="M130.958 164.486L127.036 177.59L122.981 191.16L117.979 207.91L113.924 221.496L108.391 239.944H162.45L156.932 221.496L152.877 207.91L147.875 191.16L143.821 177.59L139.899 164.486H130.958Z" fill="#A7A184"/>
<path d="M170.124 239.944H100.727V232.651H170.124V239.944Z" fill="#A7A184"/>
<path d="M147.871 191.16H122.977L127.031 177.59H143.816L147.871 191.16Z" fill="#F7F1D4"/>
<path d="M156.93 221.496H113.922L117.977 207.91H152.875L156.93 221.496Z" fill="#F7F1D4"/>
</svg>
