<svg width="213" height="27" viewBox="0 0 213 27" fill="none" xmlns="http://www.w3.org/2000/svg">
<path d="M0 25.4609V0.721146H8.53601V4.28272H8.62432C8.69055 4.15763 8.79357 3.99942 8.93338 3.81177C9.08055 3.61677 9.3933 3.27827 9.87529 2.79628C10.3646 2.31797 10.8797 1.88381 11.4206 1.50116C11.9688 1.11115 12.6752 0.761619 13.5399 0.456235C14.4119 0.154531 15.2986 0 16.2037 0C17.1346 0 18.047 0.128776 18.9411 0.382649C19.8426 0.640202 20.5048 0.894074 20.928 1.14795L21.6049 1.54531L18.0287 8.77149C16.969 7.87006 15.4899 7.4175 13.5988 7.4175C12.5685 7.4175 11.6782 7.64562 10.9349 8.0945C10.1991 8.54705 9.6766 9.09527 9.3749 9.74283C9.06952 10.383 8.85244 10.9276 8.72734 11.3764C8.59856 11.829 8.53601 12.1822 8.53601 12.4361V25.4609H0Z" fill="#9D977A"/>
<path d="M44.5008 14.2757H26.5605C26.5605 16.0124 27.1234 17.3001 28.253 18.1317C29.3788 18.9669 30.6004 19.3826 31.9176 19.3826C33.301 19.3826 34.3938 19.2024 35.1995 18.8381C36.0016 18.4665 36.9214 17.7306 37.9517 16.6305L44.1182 19.7211C41.5463 24.0296 37.2673 26.182 31.2847 26.182C27.5539 26.182 24.3566 24.909 21.6891 22.3555C19.0179 19.7947 17.686 16.7151 17.686 13.1131C17.686 9.51471 19.0179 6.42777 21.6891 3.85592C24.3566 1.28776 27.5539 0 31.2847 0C35.2069 0 38.4005 1.13323 40.8657 3.39969C43.3271 5.66615 44.5597 8.90395 44.5597 13.1131C44.5597 13.6944 44.5376 14.0807 44.5008 14.2757ZM26.8107 9.55151H36.215C36.0163 8.26742 35.5086 7.28137 34.6844 6.59334C33.8676 5.89794 32.819 5.54841 31.5349 5.54841C30.1221 5.54841 28.9925 5.91634 28.15 6.6522C27.3147 7.38807 26.8695 8.35573 26.8107 9.55151Z" fill="#9D977A"/>
<path d="M52.6576 7.81494H68.1843V15.1883H52.6576V7.81494Z" fill="#9D977A"/>
<path d="M93.2576 25.4609H87.4737L74.1988 0.721191H84.0446L90.0787 14.0845L96.0097 0.721191H101.882L107.828 14.0845L113.847 0.721191H123.693L110.418 25.4609H104.634L98.9532 12.6863L93.2576 25.4609Z" fill="#9D977A"/>
<path d="M146.104 14.2757H128.164C128.164 16.0124 128.727 17.3001 129.856 18.1317C130.982 18.9669 132.204 19.3826 133.521 19.3826C134.904 19.3826 135.997 19.2024 136.803 18.8381C137.605 18.4665 138.525 17.7306 139.555 16.6305L145.721 19.7211C143.149 24.0296 138.87 26.182 132.888 26.182C129.157 26.182 125.96 24.909 123.292 22.3555C120.621 19.7947 119.289 16.7151 119.289 13.1131C119.289 9.51471 120.621 6.42777 123.292 3.85592C125.96 1.28776 129.157 0 132.888 0C136.81 0 140.004 1.13323 142.469 3.39969C144.93 5.66615 146.163 8.90395 146.163 13.1131C146.163 13.6944 146.141 14.0807 146.104 14.2757ZM128.414 9.55151H137.818C137.619 8.26742 137.112 7.28137 136.288 6.59334C135.471 5.89794 134.422 5.54841 133.138 5.54841C131.725 5.54841 130.596 5.91634 129.753 6.6522C128.918 7.38807 128.473 8.35573 128.414 9.55151Z" fill="#9D977A"/>
<path d="M147.308 22.3997C144.99 19.8793 143.834 16.7887 143.834 13.1278C143.834 9.45952 144.99 6.35418 147.308 3.81177C149.622 1.27304 152.565 0 156.138 0C159.412 0 162.117 1.02653 164.247 3.07591V0.721146H172.783V25.4609H164.335V22.6646H164.247C162.117 25.012 159.412 26.182 156.138 26.182C152.565 26.182 149.622 24.9237 147.308 22.3997ZM154.563 8.91866C153.452 10.0077 152.9 11.4059 152.9 13.1131C152.9 14.8203 153.43 16.2147 154.49 17.2928C155.557 18.3635 156.962 18.897 158.699 18.897C160.365 18.897 161.738 18.3524 162.82 17.2634C163.898 16.1669 164.438 14.7835 164.438 13.1131C164.438 11.4059 163.883 10.0077 162.775 8.91866C161.664 7.82959 160.307 7.28505 158.699 7.28505C157.058 7.28505 155.682 7.82959 154.563 8.91866Z" fill="#9D977A"/>
<path d="M174.033 25.4609V0.721146H182.569V4.28272H182.657C182.723 4.15763 182.826 3.99942 182.966 3.81177C183.113 3.61677 183.426 3.27827 183.908 2.79628C184.397 2.31797 184.913 1.88381 185.453 1.50116C186.002 1.11115 186.708 0.761619 187.573 0.456235C188.445 0.154531 189.331 0 190.237 0C191.167 0 192.08 0.128776 192.974 0.382649C193.875 0.640202 194.538 0.894074 194.961 1.14795L195.638 1.54531L192.061 8.77149C191.002 7.87006 189.523 7.4175 187.632 7.4175C186.601 7.4175 185.711 7.64562 184.968 8.0945C184.232 8.54705 183.709 9.09527 183.408 9.74283C183.102 10.383 182.885 10.9276 182.76 11.3764C182.631 11.829 182.569 12.1822 182.569 12.4361V25.4609H174.033Z" fill="#9D977A"/>
<path d="M204.258 0C205.678 0 207.076 0.16189 208.452 0.48567C209.836 0.802091 210.866 1.11851 211.543 1.44229L212.558 1.92796L209.762 7.52052C207.827 6.49031 205.995 5.97521 204.258 5.97521C203.294 5.97521 202.613 6.08559 202.212 6.29899C201.808 6.50503 201.609 6.89872 201.609 7.47637C201.609 7.60515 201.624 7.73392 201.653 7.85902C201.69 7.9878 201.756 8.10921 201.844 8.22695C201.94 8.33733 202.028 8.42931 202.109 8.50658C202.198 8.58753 202.334 8.67583 202.521 8.77149C202.716 8.87083 202.867 8.94442 202.978 8.99225C203.095 9.04376 203.279 9.11735 203.537 9.21301C203.791 9.30131 203.982 9.37122 204.111 9.41905C204.247 9.47056 204.468 9.54415 204.773 9.63981C205.075 9.73915 205.307 9.8017 205.465 9.83113C206.466 10.1255 207.334 10.4493 208.07 10.8025C208.813 11.1557 209.593 11.6377 210.41 12.2448C211.234 12.8555 211.87 13.6245 212.323 14.5554C212.772 15.4899 213 16.5532 213 17.749C213 23.371 209.089 26.182 201.27 26.182C199.504 26.182 197.827 25.9097 196.237 25.3726C194.648 24.8243 193.492 24.2761 192.778 23.7242L191.719 22.8559L195.192 17.0279C195.457 17.245 195.796 17.5099 196.208 17.8226C196.627 18.128 197.385 18.5438 198.474 19.0736C199.571 19.6034 200.52 19.8683 201.314 19.8683C203.088 19.8683 203.978 19.2759 203.978 18.0875C203.978 17.5393 203.75 17.1125 203.301 16.8071C202.849 16.5054 202.083 16.1596 201.005 15.7769C199.924 15.3869 199.081 15.0263 198.474 14.7025C196.932 13.9005 195.711 12.9917 194.809 11.9799C193.904 10.9717 193.455 9.62509 193.455 7.94732C193.455 5.44539 194.427 3.49903 196.369 2.10457C198.32 0.70275 200.95 0 204.258 0Z" fill="#9D977A"/>
</svg>
