<svg width="63" height="63" viewBox="0 0 63 63" fill="none" xmlns="http://www.w3.org/2000/svg">
<path fill-rule="evenodd" clip-rule="evenodd" d="M31.5 0C14.1147 0 0 14.1147 0 31.5C0 48.8853 14.1147 63 31.5 63C48.8853 63 63 48.8853 63 31.5C63 14.1147 48.8853 0 31.5 0ZM31.5 2.73913C47.3733 2.73913 60.2609 15.6267 60.2609 31.5C60.2609 47.3733 47.3733 60.2609 31.5 60.2609C15.6267 60.2609 2.73913 47.3733 2.73913 31.5C2.73913 15.6267 15.6267 2.73913 31.5 2.73913Z" fill="#9D977A"/>
<path fill-rule="evenodd" clip-rule="evenodd" d="M31.5007 13.6959C26.2097 13.6959 21.9141 17.9916 21.9141 23.2825C21.9141 28.5735 26.2097 32.8692 31.5007 32.8692C36.7916 32.8692 41.0873 28.5735 41.0873 23.2825C41.0873 17.9916 36.7916 13.6959 31.5007 13.6959ZM31.5007 16.4344C35.2796 16.4344 38.3488 19.5036 38.3488 23.2825C38.3488 27.0615 35.2796 30.1307 31.5007 30.1307C27.7217 30.1307 24.6525 27.0615 24.6525 23.2825C24.6525 19.5036 27.7217 16.4344 31.5007 16.4344Z" fill="#9D977A"/>
<path fill-rule="evenodd" clip-rule="evenodd" d="M13.9373 48.2319C17.5447 42.3086 24.0625 38.3478 31.4992 38.3478C38.936 38.3478 45.4537 42.3086 49.0612 48.2319C49.4542 48.8784 50.2965 49.0838 50.9429 48.6907C51.588 48.2977 51.7935 47.454 51.4004 46.809C47.3136 40.0954 39.9262 35.6086 31.4992 35.6086C23.0723 35.6086 15.6849 40.0954 11.5981 46.809C11.205 47.454 11.4104 48.2977 12.0555 48.6907C12.7019 49.0838 13.5442 48.8784 13.9373 48.2319Z" fill="#9D977A"/>
</svg>
