<svg width="65" height="65" viewBox="0 0 65 65" fill="none" xmlns="http://www.w3.org/2000/svg">
<path d="M22.6343 33.0523C22.1247 33.0523 21.7115 33.4655 21.7115 33.9751V49.2681C21.7115 50.8648 23.0105 52.1637 24.607 52.1637H40.3887C41.9854 52.1637 43.2843 50.8647 43.2843 49.2681V31.1709L44.9917 32.1953C45.6811 32.6089 46.5192 32.7172 47.2911 32.4924C48.0629 32.2677 48.7119 31.7263 49.0713 31.0074L50.3789 28.392C50.9828 27.1843 50.68 25.7372 49.6427 24.8726L46.8589 22.5528C46.4674 22.2266 45.8855 22.2794 45.5592 22.6709C45.2329 23.0625 45.2858 23.6444 45.6773 23.9707L48.4611 26.2905C48.8373 26.6039 48.947 27.1287 48.728 27.5665L47.4203 30.1819C47.288 30.4463 47.0588 30.6376 46.7748 30.7203C46.4908 30.8029 46.1948 30.7647 45.9411 30.6125L42.836 28.7495C42.5509 28.5783 42.1958 28.574 41.9065 28.7376C41.6172 28.9015 41.4383 29.2083 41.4383 29.5408V49.268C41.4383 49.8468 40.9673 50.3179 40.3885 50.3179H33.4207V25.4684L34.4714 26.2564C34.892 26.5718 35.3965 26.7373 35.9107 26.7373C36.0953 26.7373 36.2811 26.716 36.4648 26.6726C37.16 26.5084 37.7421 26.0478 38.0616 25.4087L39.9126 21.7068L42.5689 22.2379C42.63 22.2502 42.6908 22.256 42.7509 22.256C43.1818 22.256 43.567 21.9526 43.6549 21.5139C43.7548 21.0141 43.4307 20.528 42.9309 20.428L39.8574 19.8133L38.7798 18.7357C38.0356 17.9913 36.8242 17.9912 36.0798 18.7357L35.6924 19.123L33.4208 18.0953V17.2897C33.4208 16.8726 33.6458 16.4995 33.9803 16.3611C35.6769 15.6597 36.6386 13.8978 36.3188 12.0767C36.0441 10.5115 34.759 9.22635 33.1938 8.95171C31.6534 8.68125 30.1557 9.31076 29.2844 10.5944C28.9982 11.0162 29.1079 11.5901 29.5297 11.8763C29.9515 12.1625 30.5253 12.0527 30.8115 11.6311C31.2691 10.9568 32.0597 10.6265 32.8748 10.7696C33.6763 10.9104 34.3602 11.5941 34.501 12.3958C34.6699 13.358 34.1658 14.2873 33.2752 14.6554C32.2424 15.0825 31.5751 16.1165 31.5751 17.2897V18.0953L29.3036 19.123L28.9162 18.7357C28.1719 17.9912 26.9606 17.9912 26.2162 18.7357L25.1386 19.8133L21.9544 20.4502C20.84 20.673 19.7896 21.1754 18.9166 21.9029L15.3531 24.8724C14.3159 25.7368 14.013 27.1841 14.6169 28.3918L15.9246 31.007C16.2841 31.7261 16.9329 32.2674 17.7049 32.4922C17.9691 32.5691 18.241 32.607 18.5122 32.607C19.0331 32.607 19.5509 32.467 20.0043 32.1949L23.1094 30.3318C23.5465 30.0696 23.6882 29.5028 23.4259 29.0657C23.1635 28.6286 22.5968 28.4869 22.1597 28.7492L19.0546 30.6123C18.8009 30.7645 18.5049 30.8026 18.221 30.7201C17.937 30.6374 17.7078 30.446 17.5755 30.1816L16.2679 27.5664C16.049 27.1284 16.1587 26.6038 16.5348 26.2904L20.0982 23.3209C20.7357 22.7897 21.5028 22.4229 22.3164 22.2601L25.0834 21.7066L26.9344 25.4086C27.2539 26.0476 27.8359 26.5083 28.5312 26.6724C28.7149 26.7159 28.9007 26.7372 29.0853 26.7372C29.5995 26.7372 30.104 26.5717 30.5246 26.2563L31.5753 25.4683V50.3179H24.6072C24.0283 50.3179 23.5574 49.8468 23.5574 49.268V33.9751C23.5572 33.4656 23.144 33.0523 22.6343 33.0523ZM37.4746 20.0411L38.2796 20.846L36.4108 24.5835C36.3094 24.7861 36.1354 24.8539 36.0408 24.8763C35.946 24.8987 35.7602 24.9158 35.5788 24.7798L33.9028 23.5229L37.3848 20.0411C37.4095 20.0163 37.4498 20.0162 37.4746 20.0411ZM32.4979 19.7039L34.2976 20.5181L32.4979 22.3178L30.6982 20.5181L32.4979 19.7039ZM29.4169 24.78C29.2357 24.9159 29.0497 24.8987 28.955 24.8763C28.8602 24.8539 28.6863 24.7862 28.585 24.5835L26.7161 20.8459L27.5211 20.0409C27.5459 20.0161 27.5862 20.0162 27.6109 20.0409L31.0929 23.5228L29.4169 24.78Z" fill="#9D977A" stroke="#9D977A" stroke-width="0.6"/>
<path d="M60.9687 18.999C60.75 18.5387 60.1994 18.3427 59.739 18.5614C59.2786 18.7801 59.0828 19.3306 59.3015 19.7909C61.1949 23.7765 62.1549 28.0524 62.1549 32.5C62.1549 40.4208 59.0704 47.8678 53.4694 53.4687C47.8685 59.0697 40.4217 62.1542 32.5007 62.1542C27.8031 62.1542 23.3106 61.0882 19.1485 58.9855C15.6804 57.2336 12.5472 54.774 10.0031 51.8184L13.6442 53.0322C14.1275 53.1934 14.6504 52.932 14.8116 52.4486C14.9727 51.965 14.7114 51.4424 14.2278 51.2812L7.67557 49.0971C7.37226 48.996 7.03795 49.0592 6.79247 49.2641C6.54687 49.469 6.42505 49.7864 6.47021 50.103L7.56225 57.7473C7.62808 58.2076 8.02281 58.5397 8.47476 58.5397C8.5182 58.5397 8.56213 58.5367 8.60642 58.5304C9.11104 58.4583 9.4616 57.9908 9.38949 57.4863L8.78017 53.2212C11.4502 56.2703 14.7119 58.8122 18.3164 60.633C22.739 62.8672 27.5112 64 32.5007 64C40.9146 64 48.8249 60.7233 54.7746 54.7739C60.7242 48.8242 64.0007 40.9139 64.0007 32.5C64.0007 27.7763 62.9805 23.234 60.9687 18.999Z" fill="#9D977A" stroke="#9D977A" stroke-width="0.6"/>
<path d="M2.8457 32.5C2.8457 24.5791 5.93024 17.1322 11.5312 11.5312C17.1322 5.93024 24.579 2.8457 32.5 2.8457C41.2186 2.8457 49.3455 6.59789 54.9949 13.1805L51.3564 11.9678C50.873 11.8066 50.3503 12.0679 50.1891 12.5514C50.0279 13.035 50.2893 13.5575 50.7728 13.7187L57.3251 15.9028C57.4204 15.9347 57.519 15.9502 57.6168 15.9502C57.8299 15.9502 58.04 15.8762 58.2083 15.7358C58.4539 15.531 58.5757 15.2135 58.5306 14.8969L57.4385 7.25263C57.3664 6.74801 56.8987 6.3972 56.3945 6.46956C55.8899 6.54166 55.5393 7.00912 55.6114 7.51361L56.2201 11.7745C50.2271 4.90797 41.6717 1 32.5 1C24.0861 1 16.1757 4.27662 10.2261 10.2261C4.27662 16.1757 1 24.0861 1 32.5C1 37.2236 2.02018 41.7659 4.032 46.0009C4.18999 46.3334 4.52099 46.528 4.86626 46.528C4.9989 46.528 5.13376 46.4993 5.26161 46.4384C5.72192 46.2197 5.91781 45.6692 5.69916 45.2089C3.80571 41.2234 2.8457 36.9475 2.8457 32.5Z" fill="#9D977A" stroke="#9D977A" stroke-width="0.6"/>
</svg>
