<svg width="53" height="63" viewBox="0 0 53 63" fill="none" xmlns="http://www.w3.org/2000/svg">
<path d="M18.6914 47.826C17.8634 47.826 17.1914 47.155 17.1914 46.326V1.50002C17.1914 0.999016 17.2274 0.532016 17.6434 0.253016C18.0604 -0.0249843 18.4804 -0.0769843 18.9444 0.114016L51.9174 13.77C52.4714 14 52.8094 14.538 52.8164 15.139C52.8234 15.74 52.4594 16.286 51.9094 16.529L22.7874 29.377C22.0274 29.712 21.1394 29.368 20.8054 28.611C20.4704 27.852 20.8134 26.967 21.5714 26.633L47.6864 15.201L20.1914 3.74302V46.326C20.1914 47.155 19.5194 47.826 18.6914 47.826Z" fill="#9D977A"/>
<path d="M19.6651 55.6351C12.2111 55.6351 6.37109 51.5531 6.37109 46.3411C6.37109 45.5121 7.04309 44.8411 7.87109 44.8411C8.69909 44.8411 9.37109 45.5121 9.37109 46.3411C9.37109 49.7531 14.0851 52.6351 19.6651 52.6351C25.2451 52.6351 29.9601 49.7531 29.9601 46.3411C29.9601 45.5121 30.6311 44.8411 31.4601 44.8411C32.2881 44.8411 32.9591 45.5121 32.9591 46.3411C32.9591 51.5531 27.1201 55.6351 19.6651 55.6351Z" fill="#9D977A"/>
<path d="M19.6657 63C8.92069 63 0.179688 56.995 0.179688 49.614C0.179688 45.284 3.21269 41.211 8.29269 38.718C9.03669 38.353 9.93469 38.66 10.2997 39.404C10.6657 40.148 10.3577 41.047 9.61469 41.411C5.58569 43.388 3.17969 46.455 3.17969 49.614C3.17969 55.341 10.5757 60 19.6657 60C28.7547 60 36.1507 55.341 36.1507 49.614C36.1507 46.335 33.5997 43.199 29.3267 41.226C28.5747 40.878 28.2467 39.987 28.5937 39.235C28.9407 38.483 29.8327 38.156 30.5847 38.502C35.9487 40.979 39.1507 45.133 39.1507 49.614C39.1507 56.995 30.4097 63 19.6657 63Z" fill="#9D977A"/>
</svg>
