<svg width="64" height="63" viewBox="0 0 64 63" fill="none" xmlns="http://www.w3.org/2000/svg">
<path d="M11.5156 21.5909C11.5797 25.4105 17.262 25.4085 17.326 21.5909C17.26 17.7713 11.5797 17.7713 11.5156 21.5909Z" fill="#9D977A"/>
<circle cx="32" cy="22" r="6" fill="#9D977A"/>
<path d="M48.5786 18.6818C44.755 18.7438 44.755 24.4341 48.5786 24.4962C52.3982 24.4301 52.3982 18.7478 48.5786 18.6818Z" fill="#9D977A"/>
<path d="M54.6225 0H8.37345C3.74354 0.0160066 0 3.77356 0 8.40346V34.7843C0 39.4142 3.74354 43.1718 8.37345 43.1878H31.533C33.4978 43.1698 33.4958 40.2006 31.533 40.1866H8.37145C5.40023 40.1786 2.99724 37.7656 2.99924 34.7943V8.39546C2.99123 5.42023 5.39622 3.00124 8.37145 2.99323H54.6225C57.6057 2.99323 60.0247 5.41223 60.0247 8.39546V27.4593C60.0207 29.4141 63.026 29.4261 63.026 27.4593V8.39546C63.022 3.75555 59.2624 0 54.6225 0Z" fill="#9D977A"/>
<path d="M60.971 34.164C54.3282 30.2184 45.3765 30.2204 38.7338 34.164C37.4673 34.9984 36.705 36.417 36.711 37.9336V56.3852C37.0071 62.4597 47.4074 63.276 52.0593 62.9339C56.107 62.3797 62.6837 61.4633 63.0038 56.3872V37.9356C63.0078 36.415 62.2435 34.9964 60.971 34.164ZM39.7222 37.9436C39.7622 37.4454 39.9003 36.9912 40.3845 36.6731C43.2497 34.9924 46.535 34.162 49.8564 34.3101C53.1738 34.164 56.4611 34.9864 59.3203 36.6731C59.7465 36.9512 60.0026 37.4254 60.0006 37.9336V38.7899C53.9321 42.2033 45.5886 42.3334 39.7062 38.5118C39.7062 38.3197 39.7082 38.1297 39.7222 37.9436ZM60.0046 56.3872C59.7745 58.224 57.2754 58.5941 55.8389 59.2084C50.7928 60.5289 44.9364 60.4029 40.3825 57.6477C39.9583 57.3696 39.7022 56.8954 39.7042 56.3872V51.8913C46.0508 54.7945 53.724 54.7525 60.0046 51.6913V56.3872ZM60.0126 48.1498C54.1101 52.0074 45.7507 52.0054 39.7102 48.4419C39.6902 47.2214 39.7282 43.3278 39.7122 42.0493C45.9948 45.1085 53.666 45.1466 60.0126 42.2474V48.1498Z" fill="#9D977A"/>
</svg>
