<svg width="52" height="63" viewBox="0 0 52 63" fill="none" xmlns="http://www.w3.org/2000/svg">
<path fill-rule="evenodd" clip-rule="evenodd" d="M23.6891 0.256496L4.33821 5.09424C1.7886 5.73163 0 8.02245 0 10.6505V34.7015C0 44.5613 5.57069 53.5749 14.3895 57.9843L23.2115 62.3955C24.0176 62.7984 24.8956 63 25.7727 63C26.6499 63 27.5278 62.7984 28.334 62.3955L37.156 57.9843C45.9748 53.5749 51.5455 44.5613 51.5455 34.7015V10.6505C51.5455 8.02245 49.7568 5.73163 47.2073 5.09424L27.8563 0.256496C27.1722 0.0855083 26.4726 0 25.7727 0C25.0729 0 24.3733 0.0855083 23.6891 0.256496ZM5.03273 7.87236L24.3836 3.03465C24.8398 2.92065 25.3062 2.86364 25.7727 2.86364C26.2392 2.86364 26.7057 2.92062 27.1619 3.03465L46.5126 7.87236C47.7875 8.19106 48.6818 9.33649 48.6818 10.6505V34.7015C48.6818 43.4769 43.724 51.4988 35.8753 55.4231L27.0533 59.834C26.6501 60.0356 26.2114 60.1364 25.7727 60.1364C25.334 60.1364 24.8953 60.0356 24.4921 59.834L15.6702 55.4231C7.82151 51.4988 2.86364 43.4769 2.86364 34.7015V10.6505C2.86364 9.33649 3.75795 8.19106 5.03273 7.87236ZM39.6717 22.4897C40.2307 21.9306 40.2307 21.024 39.6717 20.4648C39.1124 19.9057 38.2058 19.9056 37.6465 20.4648L22.9091 35.2021L16.7624 29.0556C16.2033 28.4966 15.2967 28.4966 14.7375 29.0559C14.1784 29.6149 14.1784 30.5215 14.7376 31.0808L21.8968 38.2396C22.4558 38.7988 23.3624 38.7988 23.9217 38.2396L39.6717 22.4897Z" fill="#9D977A"/>
</svg>
