<svg width="60" height="65" viewBox="0 0 60 65" fill="none" xmlns="http://www.w3.org/2000/svg">
<path d="M57.1546 30.9588L35.5191 18.4754C35.0166 18.1856 34.3746 18.3579 34.0848 18.8602C33.795 19.3625 33.9672 20.0046 34.4696 20.2945C34.4696 20.2945 56.1444 32.8003 56.1563 32.8066C58.5775 34.0831 57.6546 39.5886 53.9526 39.5886H48.4133V35.7897C48.4133 33.6289 46.6553 31.8581 44.4946 31.8562H16.1093C13.875 31.8562 12.1875 33.6508 12.1875 35.7666C12.1875 36.3465 12.6576 36.8167 13.2375 36.8167C13.8174 36.8167 14.2875 36.3465 14.2875 35.7666C14.2875 34.8001 15.0469 33.9563 16.1094 33.9563H44.4928C45.4966 33.9571 46.3133 34.7859 46.3133 35.7897V60.61C46.3133 60.912 45.9821 61.1005 45.7216 60.9363L43.0025 59.2205C42.1965 58.7117 41.155 58.7115 40.3487 59.2204L36.1939 61.8424C36.0687 61.9213 35.9069 61.9214 35.7819 61.8423L31.6272 59.2204C30.8211 58.7119 29.7796 58.7117 28.9734 59.2204L24.8186 61.8424C24.6934 61.9213 24.5315 61.9214 24.4066 61.8423L20.252 59.2205C19.4458 58.7118 18.4043 58.7117 17.5982 59.2204L14.8791 60.9363C14.6222 61.0984 14.2874 60.9162 14.2874 60.61V40.6385C14.2874 40.0586 13.8172 39.5885 13.2373 39.5885H6.64818C2.9244 39.5885 2.03766 34.0753 4.44444 32.8065C4.4577 32.7994 30.8939 17.5945 31.095 17.3614C31.2252 17.2101 31.3122 17.0238 31.3402 16.8155C31.3555 16.7002 31.3504 16.7507 31.3504 15.0432C31.3504 14.4196 31.7667 13.8595 32.3864 13.6496C35.177 12.7039 36.9838 9.98486 36.7807 7.03745C36.5592 3.82608 33.9705 1.23737 30.7591 1.01582C26.9013 0.75226 23.8045 3.81886 23.8045 7.49604C23.8045 8.07592 24.2747 8.54607 24.8546 8.54607C25.4344 8.54607 25.9046 8.07592 25.9046 7.49604C25.9046 4.94803 28.055 2.93369 30.6146 3.11101C32.7858 3.26077 34.5359 5.0109 34.6857 7.18209C34.8235 9.1791 33.6007 11.0207 31.7127 11.6606C30.24 12.1597 29.2506 13.5191 29.2506 15.0432V16.0699L3.44626 30.9588C-0.889943 33.2743 0.759777 41.6885 6.64818 41.6885H12.1875V60.61C12.1875 62.5646 14.3467 63.7554 16 62.7124L18.7193 60.9964C18.8445 60.9171 19.0063 60.9172 19.1313 60.9965L23.2858 63.6183C24.092 64.1272 25.1335 64.127 25.9396 63.6184L30.0943 60.9965C30.2194 60.9175 30.3815 60.9175 30.5066 60.9965L34.6611 63.6183C35.4674 64.1272 36.5086 64.1273 37.3149 63.6184L41.4698 60.9964C41.5948 60.9171 41.7567 60.9172 41.8818 60.9965L44.6009 62.7124C46.2539 63.7553 48.4134 62.5648 48.4134 60.61V41.6885H53.9527C56.5772 41.6885 58.7133 39.9102 59.3942 37.1581C60.0388 34.5526 59.118 32.0073 57.1546 30.9588Z" fill="#9D977A" stroke="#9D977A" stroke-width="0.5"/>
</svg>
