<svg width="86" height="46" viewBox="0 0 86 46" fill="none" xmlns="http://www.w3.org/2000/svg">
<path d="M74.0057 46C72.5483 46.001 71.1234 45.575 69.9111 44.7757C68.6988 43.9764 67.7536 42.8398 67.1952 41.5097C66.6367 40.1796 66.4901 38.7157 66.7737 37.3032C67.0574 35.8907 67.7587 34.593 68.7888 33.5744C69.819 32.5558 71.1317 31.8619 72.561 31.5806C73.9903 31.2993 75.472 31.4431 76.8185 31.9939C78.1651 32.5448 79.3161 33.4779 80.1258 34.6751C80.9356 35.8724 81.3679 37.2801 81.3679 38.7201C81.3669 40.6497 80.5911 42.5 79.2108 43.8649C77.8305 45.2297 75.9585 45.9976 74.0057 46ZM74.0057 34.0959C73.0799 34.0948 72.1745 34.3652 71.4042 34.8726C70.6339 35.3801 70.0332 36.102 69.6782 36.9468C69.3231 37.7917 69.2297 38.7217 69.4097 39.619C69.5896 40.5164 70.0349 41.3409 70.6892 41.9881C71.3435 42.6353 72.1774 43.0763 73.0854 43.2552C73.9933 43.434 74.9346 43.3427 75.79 42.9929C76.6455 42.6431 77.3767 42.0504 77.8912 41.2898C78.4057 40.5292 78.6803 39.635 78.6803 38.7201C78.6798 37.4948 78.1874 36.3197 77.311 35.4527C76.4346 34.5857 75.2458 34.0978 74.0057 34.0959Z" fill="#9D977A"/>
<path d="M35.1755 46C33.718 46.0014 32.2929 45.5756 31.0803 44.7765C29.8678 43.9775 28.9224 42.841 28.3637 41.5109C27.8049 40.1808 27.658 38.7169 27.9415 37.3043C28.2249 35.8916 28.9261 34.5938 29.9561 33.575C30.9862 32.5562 32.299 31.8622 33.7283 31.5807C35.1577 31.2992 36.6394 31.443 37.9861 31.9938C39.3327 32.5446 40.4838 33.4776 41.2937 34.6749C42.1036 35.8723 42.5358 37.28 42.5358 38.7201C42.5344 40.6492 41.7587 42.499 40.3789 43.8637C38.9991 45.2284 37.1278 45.9967 35.1755 46ZM35.1755 34.0959C34.2496 34.0945 33.344 34.3645 32.5735 34.8718C31.8029 35.379 31.202 36.1008 30.8467 36.9456C30.4913 37.7905 30.3976 38.7205 30.5774 39.6179C30.7572 40.5154 31.2023 41.3401 31.8565 41.9875C32.5108 42.6349 33.3446 43.076 34.2527 43.255C35.1607 43.434 36.102 43.3429 36.9576 42.9931C37.8132 42.6433 38.5445 42.0506 39.0591 41.29C39.5736 40.5294 39.8483 39.635 39.8483 38.7201C39.8473 37.4952 39.3549 36.3206 38.479 35.4538C37.6031 34.587 36.4151 34.0987 35.1755 34.0959Z" fill="#9D977A"/>
<path d="M83.695 40.0478H80.0202C79.6638 40.0478 79.322 39.9079 79.07 39.6589C78.818 39.4099 78.6764 39.0722 78.6764 38.72C78.6764 38.3679 78.818 38.0301 79.07 37.7811C79.322 37.5321 79.6638 37.3922 80.0202 37.3922H83.3151V30.3514C83.3143 29.3995 83.0676 28.4635 82.5984 27.6321L75.3241 14.7454C75.2619 14.6355 75.1712 14.5439 75.0613 14.4801C74.9514 14.4163 74.8263 14.3826 74.6988 14.3825H64.7852V37.3976H67.9852C68.3416 37.3976 68.6834 37.5374 68.9354 37.7865C69.1874 38.0355 69.329 38.3732 69.329 38.7253C69.329 39.0775 69.1874 39.4152 68.9354 39.6642C68.6834 39.9132 68.3416 40.0531 67.9852 40.0531H63.4414C63.085 40.0531 62.7432 39.9132 62.4912 39.6642C62.2392 39.4152 62.0977 39.0775 62.0977 38.7253V13.0547C62.0977 12.7026 62.2392 12.3648 62.4912 12.1158C62.7432 11.8668 63.085 11.7269 63.4414 11.7269H74.6988C75.305 11.7266 75.9003 11.8863 76.4232 12.1895C76.9461 12.4926 77.3776 12.9282 77.673 13.4513L84.9456 26.3397C85.637 27.5665 86.0002 28.9472 86.0009 30.3514V37.7693C86 38.3733 85.7567 38.9523 85.3245 39.3794C84.8922 39.8065 84.3063 40.0469 83.695 40.0478Z" fill="#9D977A"/>
<path d="M29.1577 40.0478H16.2735C15.9171 40.0478 15.5753 39.908 15.3233 39.6589C15.0713 39.4099 14.9297 39.0722 14.9297 38.72V28.5085C14.9297 28.1563 15.0713 27.8186 15.3233 27.5696C15.5753 27.3206 15.9171 27.1807 16.2735 27.1807C16.6299 27.1807 16.9717 27.3206 17.2237 27.5696C17.4757 27.8186 17.6173 28.1563 17.6173 28.5085V37.3923H29.1577C29.5141 37.3923 29.8559 37.5321 30.1079 37.7812C30.3599 38.0302 30.5015 38.3679 30.5015 38.72C30.5015 39.0722 30.3599 39.4099 30.1079 39.6589C29.8559 39.908 29.5141 40.0478 29.1577 40.0478Z" fill="#9D977A"/>
<path d="M16.2735 23.7976C15.9171 23.7976 15.5753 23.6577 15.3233 23.4087C15.0713 23.1597 14.9297 22.8219 14.9297 22.4698V13.5541C14.9297 13.202 15.0713 12.8642 15.3233 12.6152C15.5753 12.3662 15.9171 12.2263 16.2735 12.2263C16.6299 12.2263 16.9717 12.3662 17.2237 12.6152C17.4757 12.8642 17.6173 13.202 17.6173 13.5541V22.4751C17.6158 22.8263 17.4736 23.1627 17.2218 23.4106C16.9699 23.6584 16.6289 23.7976 16.2735 23.7976Z" fill="#9D977A"/>
<path d="M63.4403 40.0479H41.1926C40.8362 40.0479 40.4944 39.908 40.2424 39.659C39.9904 39.41 39.8488 39.0723 39.8488 38.7201C39.8488 38.368 39.9904 38.0303 40.2424 37.7813C40.4944 37.5322 40.8362 37.3924 41.1926 37.3924H62.0966V2.65558H17.6173V8.12431C17.6173 8.47646 17.4757 8.81419 17.2237 9.0632C16.9717 9.31221 16.6299 9.4521 16.2735 9.4521C15.9171 9.4521 15.5753 9.31221 15.3233 9.0632C15.0713 8.81419 14.9297 8.47646 14.9297 8.12431V2.41127C14.9306 1.77174 15.1883 1.1587 15.6461 0.706653C16.104 0.254605 16.7246 0.000468175 17.3718 0H62.3438C62.9907 0.000936588 63.6109 0.255281 64.0683 0.707278C64.5258 1.15928 64.7832 1.77205 64.7841 2.41127V38.7201C64.7841 39.0723 64.6425 39.41 64.3905 39.659C64.1385 39.908 63.7967 40.0479 63.4403 40.0479Z" fill="#9D977A"/>
<path d="M21.5827 29.8362H4.52738C4.17099 29.8362 3.82919 29.6964 3.57718 29.4473C3.32517 29.1983 3.18359 28.8606 3.18359 28.5085C3.18359 28.1563 3.32517 27.8186 3.57718 27.5696C3.82919 27.3206 4.17099 27.1807 4.52738 27.1807H21.5827C21.9391 27.1807 22.2809 27.3206 22.5329 27.5696C22.7849 27.8186 22.9265 28.1563 22.9265 28.5085C22.9265 28.8606 22.7849 29.1983 22.5329 29.4473C22.2809 29.6964 21.9391 29.8362 21.5827 29.8362Z" fill="#9D977A"/>
<path d="M35.1744 23.7975H11.375C11.0186 23.7975 10.6768 23.6577 10.4248 23.4086C10.1728 23.1596 10.0312 22.8219 10.0313 22.4698C10.0312 22.1176 10.1728 21.7799 10.4248 21.5309C10.6768 21.2819 11.0186 21.142 11.375 21.142H35.1744C35.5308 21.142 35.8726 21.2819 36.1246 21.5309C36.3766 21.7799 36.5182 22.1176 36.5182 22.4698C36.5182 22.8219 36.3766 23.1596 36.1246 23.4086C35.8726 23.6577 35.5308 23.7975 35.1744 23.7975Z" fill="#9D977A"/>
<path d="M10.6374 16.7869H1.34379C0.987391 16.7869 0.645594 16.647 0.393586 16.398C0.141577 16.149 0 15.8113 0 15.4591C0 15.107 0.141577 14.7693 0.393586 14.5202C0.645594 14.2712 0.987391 14.1313 1.34379 14.1313H10.6374C10.9938 14.1313 11.3356 14.2712 11.5876 14.5202C11.8396 14.7693 11.9812 15.107 11.9812 15.4591C11.9812 15.8113 11.8396 16.149 11.5876 16.398C11.3356 16.647 10.9938 16.7869 10.6374 16.7869Z" fill="#9D977A"/>
<path d="M25.5378 9.45209H9.13285C8.77645 9.45209 8.43466 9.3122 8.18265 9.06319C7.93064 8.81418 7.78906 8.47645 7.78906 8.1243C7.78906 7.77215 7.93064 7.43442 8.18265 7.18541C8.43466 6.9364 8.77645 6.79651 9.13285 6.79651H25.5378C25.8942 6.79651 26.236 6.9364 26.488 7.18541C26.74 7.43442 26.8816 7.77215 26.8816 8.1243C26.8816 8.47645 26.74 8.81418 26.488 9.06319C26.236 9.3122 25.8942 9.45209 25.5378 9.45209Z" fill="#9D977A"/>
</svg>
